<svg width="53" height="66" viewBox="0 0 53 66" fill="none" xmlns="http://www.w3.org/2000/svg">
<mask id="path-1-inside-1" fill="white">
<path fill-rule="evenodd" clip-rule="evenodd" d="M25.3475 0.296167C26.6528 0.13172 27.9688 -0.117603 29.2794 0.0627588C28.4003 0.312082 27.4573 0.248425 26.5995 0.598537C25.4487 0.996393 24.6442 2.09447 23.4081 2.29605C22.4651 2.49233 21.5061 2.29605 20.595 2.06795C19.0819 1.70192 17.3877 1.82924 16.0344 2.63556C15.1287 3.2403 14.4094 4.26941 14.4467 5.38341C14.4627 5.88205 14.7504 6.30113 14.9635 6.73081C14.7451 7.75993 14.8996 8.81027 15.2938 9.78103C15.5336 8.58747 15.9811 7.35677 16.9881 6.59819C17.8352 5.9298 18.9274 5.57438 20.009 5.61682C21.1705 5.57968 22.2307 6.2746 23.4028 6.14729C24.7081 6.16851 25.9335 5.39402 26.5249 4.24289C25.6778 4.85824 24.6229 5.25079 23.5627 5.0386C21.6127 4.66727 19.6627 3.59571 17.6381 4.1421C16.5992 4.37551 15.8586 5.19244 15.3205 6.06241C15.3578 5.05982 15.8426 4.03601 16.7856 3.5851C18.1975 2.92201 19.8438 2.99097 21.3409 3.29865C22.4918 3.62754 23.7331 3.77607 24.9053 3.46309C25.9549 3.09707 26.6688 2.18996 27.2549 1.29876C27.3881 1.04413 27.6811 1.2298 27.7024 1.4526C28.1073 2.54538 28.0274 3.72833 27.8622 4.86354C28.7733 3.81321 29.2848 2.51885 29.8175 1.25632C30.0253 0.736461 30.5794 0.62506 31.0856 0.662194C31.1548 1.1131 31.1921 1.57991 31.0696 2.02551C30.5262 4.39142 29.061 6.66715 26.7913 7.69097C25.5979 8.26388 24.2553 8.32223 22.9553 8.22675C21.8631 8.14187 22.1455 8.14187 21.7672 8.11535C23.0778 8.52381 24.3672 9.09672 25.7631 9.11264C27.5585 9.24526 29.3594 8.46016 30.5102 7.09153C32.0179 5.2561 32.6999 2.86896 32.8011 0.529576C34.8097 0.900906 36.845 1.09188 38.8642 1.41016C40.3827 1.63296 41.9331 1.5693 43.4622 1.74966C42.1409 2.20587 40.7663 2.51885 39.365 2.47111C38.5019 2.50294 37.6708 2.2324 36.813 2.17404C36.7651 2.22709 36.6638 2.33319 36.6159 2.38623C37.6069 3.71242 39.4716 4.18454 41.0433 3.77077C40.6917 4.1368 40.356 4.55587 39.8712 4.75214C38.9921 5.14469 38.0491 4.80519 37.1327 4.91659C37.2925 5.42054 37.5376 5.94571 38.0331 6.18442C39.0081 6.7149 40.1536 6.62472 41.2245 6.62472C40.5372 7.31433 39.7007 7.97212 38.6884 8.04108C37.8413 8.057 36.9942 7.87133 36.211 7.56365C35.4491 7.26659 34.927 6.61941 34.3409 6.08894C34.3835 6.1526 34.4634 6.28521 34.5061 6.34887C34.9642 7.51591 35.6569 8.71478 36.861 9.22934C38.0118 9.69616 39.3278 9.37257 40.3773 8.79966C41.0646 8.46016 41.6773 7.96151 42.4232 7.74402C42.972 7.55835 43.5474 7.60609 44.0908 7.86072C44.7142 8.50259 44.9646 9.54232 44.4851 10.338C44.0003 11.086 43.1958 11.5369 42.5724 12.1523C42.8228 11.3565 43.5634 10.3009 43.004 9.69616C42.0663 9.36196 41.2724 9.80756 40.3614 10.0357C38.8323 10.4813 37.2019 10.9958 35.6036 10.598C33.9573 10.2638 32.8651 8.44954 31.0589 8.69356C28.5762 9.11794 26.3065 10.3911 24.3299 11.9135C23.1684 12.8047 22.0442 13.9028 21.6553 15.3669C21.245 16.9477 21.0692 18.5869 20.4938 20.1253C20.4086 20.486 20.1049 20.9263 20.4246 21.2605C20.8455 21.8281 21.5967 21.3931 22.1561 21.3241C24.6762 20.8255 27.2495 20.104 29.8335 20.486C30.686 20.6717 31.7249 20.8626 32.1565 21.7273C32.6733 22.7352 32.7372 23.9075 32.7852 25.0268C32.4069 24.438 32.1298 23.7431 31.5331 23.3346C31.1175 23.027 30.5794 23.4354 30.4729 23.8598C30.1372 25.0799 30.2757 26.5546 29.2368 27.4723C27.777 28.7455 26.7008 30.878 27.484 32.8036C28.2299 34.2146 28.8958 35.7742 28.6987 37.4081C28.6188 38.3683 27.7557 39.0101 27.5852 39.9438C27.4307 40.5644 27.6118 41.4238 28.3151 41.6094C29.1729 41.9012 30.0147 41.3813 30.8671 41.3336C31.677 41.2381 32.4548 41.5405 33.2487 41.6413C33.4298 40.7872 33.1208 39.9438 33.1102 39.0897C32.8651 36.4957 33.2593 33.8964 33.1847 31.297C33.222 29.9868 33.0089 28.459 33.0569 27.1487C34.0319 30.8461 34.0585 34.9149 34.6552 38.6759C34.8097 39.4292 34.911 40.2302 35.3052 40.9092C35.8274 41.8057 37.1753 42.1134 38.0118 41.4715C38.4753 41.1373 38.6884 40.5856 38.9548 40.1029C39.3491 40.6015 39.5089 41.2275 39.2798 41.8269C38.8642 42.8561 37.5323 43.2645 37.2073 44.352C36.8769 45.3334 36.52 46.5163 35.4757 46.9566C34.1704 47.381 32.5667 46.9885 31.7516 45.8426C31.272 45.1848 30.6221 44.6331 29.8282 44.3891C28.9598 44.0868 28.0327 44.2883 27.1376 44.2565C26.2905 44.2618 25.502 43.5192 25.4913 42.6651C25.4594 41.7421 25.9069 40.8562 25.7631 39.9332C25.5926 38.225 24.2819 36.8776 22.87 36.0395C22.0496 35.5302 21.0692 35.8909 20.1741 35.7902C18.9274 35.753 17.718 34.9414 16.466 35.4029C15.5229 35.6894 15.118 36.7079 14.9848 37.5938C14.8783 38.5592 14.9049 39.5671 15.2406 40.4901C16.157 43.0842 17.4942 45.5403 18.043 48.2563C18.1496 49.8477 18.091 51.5187 18.7996 52.9934C18.9967 53.439 19.375 53.7573 19.7266 54.0862C20.2434 54.1286 20.8774 54.3302 21.293 53.9058C21.9004 53.317 21.6233 52.3781 21.4848 51.6513C21.1918 50.5055 21.1758 49.1687 21.9643 48.2085C22.5291 47.5401 23.3016 46.8187 24.25 46.9354C24.6016 46.9354 24.8786 47.1847 25.1663 47.3492C25.177 47.6091 25.193 47.869 25.2036 48.129C26.2319 48.4473 27.3241 48.2245 28.3204 47.9062C29.6257 47.4447 31.0003 47.0733 32.3962 47.137C33.4085 47.1741 34.2556 47.9751 35.2946 47.8531C35.9925 47.8531 36.4827 47.2378 37.1433 47.1317C38.2569 47.2325 39.0507 48.3465 40.2228 48.1926C40.9261 48.2298 41.379 47.6144 41.6827 47.068C41.7466 47.068 41.8798 47.0733 41.9437 47.0786C42.0609 47.2113 42.1355 47.2855 42.1782 47.4712C42.2847 48.6276 42.306 49.9379 41.5068 50.8768C41.3044 51.1474 40.8888 51.4179 40.5851 51.1315C40.1429 50.6912 39.8659 50.1129 39.365 49.7257C38.6138 49.1157 37.5909 48.93 36.6425 49.0467C35.4118 49.2058 34.1651 49.2483 32.929 49.1369C32.3962 49.1157 31.7675 48.9936 31.3307 49.3915C30.6434 50.0068 30.2438 51.2375 30.963 51.9749C31.5917 52.5001 32.4868 52.3675 33.2487 52.3462C34.6659 52.203 36.0938 52.0863 37.5163 52.1765C37.8786 52.2083 38.4273 52.3462 38.4273 52.8024C38.2675 53.5822 37.6015 54.1658 36.8663 54.4204C35.172 55.057 33.3179 55.0039 31.5331 54.9615C29.3913 54.8766 27.42 53.752 25.2622 53.8156C24.6655 53.8581 23.845 54.2878 24.0475 55.0039C24.4311 55.8633 25.2622 56.5317 25.3315 57.529C25.4221 59.1045 25.5446 60.8656 26.6422 62.1123C27.5958 63.0724 28.9704 63.7461 30.3503 63.5233C31.5917 63.3005 32.8278 62.9822 34.0958 62.9981C35.22 62.9398 36.3761 63.1573 37.4683 62.7966C38.6937 62.4199 39.7487 61.5659 40.4466 60.4996C41.4323 59.062 41.9171 57.3751 42.4499 55.736C43.1745 53.3754 43.7499 50.967 44.2773 48.5533C44.8687 45.9646 46.0994 43.5881 46.9679 41.0896C48.0867 37.6044 48.6728 33.8327 47.8523 30.2149C47.6925 30.2043 47.6339 30.1194 47.474 30.0982C47.1757 30.565 46.6056 30.9363 46.0888 31.1379C46.2486 30.5119 46.7175 29.9762 46.547 29.3078C45.9876 30.0239 45.3908 30.7029 44.4691 30.74C43.3023 30.9204 42.306 30.1937 41.2298 29.9125C40.8142 29.8064 41.0593 30.3316 41.2191 30.4589C41.8159 31.1538 42.7322 31.4297 43.5048 31.8806C42.9986 32.671 41.9437 32.4057 41.1925 32.1935C40.1802 31.9283 39.365 31.0318 38.2569 31.1432C38.0757 32.3315 38.3954 33.5038 38.4273 34.6921C38.4433 35.509 38.4966 36.3418 38.3101 37.1482C37.5909 33.9335 37.1114 30.6658 36.5519 27.4246C36.2909 25.9552 35.9126 24.4964 35.8647 23.0004C35.838 22.3161 36.0991 21.6 36.6585 21.1862C37.1487 20.8414 37.7294 20.6292 38.3208 20.5496C40.7236 20.3269 43.1585 20.7088 45.4281 21.5045C46.5523 21.8016 47.7724 22.3957 48.9232 21.8758C49.0084 20.1147 49.1789 18.3376 49.0457 16.5711C48.9392 15.0964 48.3851 13.627 47.3568 12.5448C46.5949 13.0806 45.8917 13.7384 44.9966 14.0567C44.2773 14.3431 43.4835 14.2741 42.7322 14.4227C42.2421 14.5182 41.8212 14.7993 41.3843 15.0221C41.5548 13.9824 42.3753 13.0434 43.4302 12.8472C44.2773 12.6456 45.1777 12.5501 45.9396 12.0992C47.1171 11.4467 47.8257 10.1895 48.1507 8.92697C48.4916 7.56365 48.172 6.13668 47.5912 4.88476C48.6781 5.79718 49.4826 7.06501 49.781 8.46016C50.106 9.90835 49.9035 11.4839 50.6388 12.8366C49.6584 12.5289 49.2908 11.5051 49.0084 10.6245C48.7953 11.3459 48.774 12.1257 48.9978 12.8419C49.3068 13.6959 50.4203 13.871 50.7027 14.741C50.8785 15.2078 50.8732 15.717 50.9584 16.1998C51.1289 15.7754 51.2675 15.3351 51.2515 14.8736C51.1822 13.2132 51.422 11.5316 51.033 9.90304C50.8945 9.39909 50.708 8.91106 50.5695 8.41241C51.747 9.10733 52.2158 10.529 52.1625 11.8393C52.1679 12.9267 51.7256 13.9559 51.7363 15.0486C51.715 17.1546 51.8162 19.372 50.9158 21.3347C50.708 21.8971 49.9888 22.1941 50.0101 22.8466C49.9675 24.1197 49.2322 25.2019 48.8806 26.3902C48.5183 28.1142 48.6248 29.8913 48.6728 31.6418C48.8326 34.2836 48.9552 36.9731 48.4437 39.5883C47.799 42.8136 46.888 45.9859 45.8011 49.0891C44.4904 52.9722 43.7658 57.0674 41.981 60.7755C40.9527 62.9822 38.8003 64.4888 36.4614 65.0352C33.6856 65.6611 30.8352 66.0271 27.9794 65.9953C25.7151 65.9847 23.4561 66.0325 21.1918 65.9529C19.4496 65.815 17.7233 65.5338 16.0078 65.2261C14.7344 64.945 13.3971 64.6638 12.3475 63.8416C11.4951 63.2369 10.8451 62.3934 10.275 61.5287C8.94305 59.4015 8.07461 57.0303 7.27543 54.6644C6.11397 51.1102 5.19757 47.4818 4.44635 43.8215C4.14799 42.4052 3.99348 40.957 3.58324 39.5671C3.27422 38.3895 2.60291 37.3604 2.22464 36.2092C1.63857 34.4056 1.14308 32.5383 1.18571 30.6286C1.12177 28.3635 1.70784 26.1143 1.48939 23.8439C1.27628 21.5363 0.972594 19.2341 0.834069 16.9159C0.80743 13.993 1.43079 11.0223 2.89062 8.46016C3.8443 6.68307 5.22954 5.17652 6.76929 3.88747C8.09059 2.86896 9.53977 1.95125 11.1807 1.53748C9.4119 2.66208 7.70166 4.15271 7.12626 6.24808C6.66806 7.76524 6.97708 9.44684 7.8242 10.773C8.2824 11.4732 8.94838 12.0886 9.79551 12.2743C9.32133 11.696 8.79387 11.1497 8.49551 10.4547C7.99469 9.33544 8.05863 8.09413 8.31969 6.92178C8.45822 8.23736 8.7033 9.54763 9.49715 10.6457C10.2271 11.7173 11.4098 12.7517 12.8004 12.5766C13.1254 12.513 13.3545 12.7994 13.5943 12.9692C14.3188 13.5792 15.134 14.1627 16.0824 14.359C16.7004 14.5022 17.3131 14.1893 17.75 13.7808C17.3024 13.3989 16.759 13.1655 16.2848 12.8153C14.2656 11.3884 12.7631 9.1869 12.2943 6.75203C12.1611 5.5956 12.0652 4.27472 12.8164 3.28804C13.5143 2.35971 14.6119 1.92472 15.6242 1.43138C14.0578 1.64357 12.4328 2.18996 11.4098 3.45779C10.5094 4.62483 10.4189 6.20034 10.6799 7.60079C10.9676 9.00124 11.4791 10.3752 12.3209 11.5475C11.4098 11.2611 10.7492 10.4866 10.275 9.69616C9.35329 8.1684 9.08157 6.23217 9.641 4.53465C10.1738 2.96445 11.5164 1.76558 13.0561 1.20328C14.8463 0.556099 16.7697 0.518966 18.6451 0.455309C20.8828 0.423481 23.1364 0.747069 25.3475 0.296167ZM3.67914 9.42562C2.7734 11.1656 2.37382 13.1708 2.51767 15.1176C3.1357 13.6535 3.65783 12.0833 4.782 10.9003C5.11766 10.4919 5.62913 10.1789 5.77298 9.64842C5.84757 8.96941 5.67708 8.29571 5.59716 7.62731C4.69676 7.85011 4.12668 8.67765 3.67914 9.42562ZM16.5299 9.22404C16.1356 10.1046 16.3488 11.1284 16.9029 11.8817C17.0467 11.0223 17.0094 10.0357 17.686 9.37787C18.4 8.5079 19.6041 8.44955 20.6323 8.32754C19.9717 8.15779 19.3323 7.86603 18.6451 7.85542C17.7553 7.84481 16.8336 8.36467 16.5299 9.22404ZM4.72872 13.3564C3.83897 14.3325 3.49799 15.664 3.39676 16.9477C3.16767 18.9954 4.22791 20.8732 4.42504 22.8731C4.47831 23.9871 3.75373 24.9207 3.38078 25.9233C2.3525 28.65 2.32054 31.8487 3.72176 34.4534C3.59389 33.0423 3.46603 31.5941 3.83897 30.2096C4.13733 29.1539 4.53159 28.093 5.2402 27.2442C6.0447 26.2575 6.87585 25.2125 7.15822 23.9447C7.39265 22.7299 7.07298 21.5151 6.93445 20.3109C6.76929 19.3614 6.76929 18.3906 6.7906 17.4305C6.74798 16.3165 7.73363 15.4253 7.51519 14.2848C7.06232 14.3962 6.56683 14.5129 6.24183 14.8736C5.72503 15.4253 5.5279 16.1892 5.37339 16.9159C5.0111 19.1439 6.14593 21.2976 5.90618 23.5203C5.68774 25.3982 4.14266 26.7084 3.57258 28.459C3.49799 26.2682 5.49593 24.5441 5.16028 22.3161C4.89389 20.3481 4.11069 18.4118 4.38774 16.4013C4.60618 14.8842 5.60249 13.6482 6.67872 12.6191C6.67872 12.513 6.68404 12.2902 6.68404 12.1841C5.83692 12.1151 5.24552 12.7888 4.72872 13.3564ZM14.3775 16.0247C13.6688 16.3907 13.4557 17.2077 13.0934 17.8495C12.5607 18.8999 11.4312 19.4728 10.8771 20.5125C10.5148 21.1226 10.2324 21.9819 10.7279 22.6079C11.1967 23.202 12.0225 23.202 12.7152 23.1384C14.2762 22.9527 15.8213 22.645 17.3397 22.2419C17.8086 21.2711 17.8459 20.1624 17.7926 19.1015C17.7287 18.1254 17.5315 17.0804 16.8709 16.3112C16.2529 15.6109 15.1606 15.6428 14.3775 16.0247ZM16.9188 25.8597C17.6328 25.8066 18.3094 25.5785 18.9807 25.361C20.5631 24.8677 22.3053 24.4752 23.925 25.0003C24.9479 25.3186 25.6778 26.1249 26.4876 26.7774C26.184 25.8968 25.7577 25.0428 25.1077 24.3638C24.4045 23.6529 23.3336 23.4566 22.3692 23.515C20.3713 23.7537 18.5278 24.6926 16.9188 25.8597ZM43.3716 24.1569C43.3716 24.2895 43.3716 24.5441 43.3663 24.6714C41.9277 24.9685 40.7982 25.8862 39.9405 26.6607C40.015 26.7084 40.0523 26.735 40.1269 26.7827C41.1712 25.865 43.6806 25.2549 44.9913 25.4777C44.4105 25.9711 43.5208 25.8544 43.02 26.475C42.8548 27.1275 43.5581 27.589 43.5314 28.2362C43.6007 28.8038 43.4142 29.4775 43.9204 29.8913C44.4531 30.4271 45.3962 30.1088 45.6785 29.4881C46.0941 28.6818 46.5576 27.8384 46.6003 26.9153C46.6695 26.2363 45.9343 25.9764 45.54 25.5626C46.4617 25.4088 47.1703 26.0454 47.7031 26.7031C47.847 26.0931 47.7298 25.3929 47.2343 24.9685C46.1687 24.0932 44.6929 23.9447 43.3716 24.1569ZM20.6909 25.7271C19.2205 26.0082 17.8086 26.5758 16.5086 27.3132C15.9598 27.536 15.832 28.3688 16.3221 28.7189C17.1053 29.4139 18.0803 29.8488 19.0446 30.2361C20.4672 30.7878 22.0815 30.6393 23.4721 30.061C24.4258 29.6791 25.6192 29.3237 26.0135 28.268C25.9975 27.5837 25.4327 27.101 24.9266 26.7191C23.7065 25.8809 22.1561 25.4565 20.6909 25.7271ZM15.134 28.6871C15.1287 30.2838 16.2688 31.6047 17.5848 32.3739C18.9221 33.1431 20.6856 32.9203 21.9164 32.045C21.927 31.9707 21.9377 31.8169 21.943 31.7373C20.6057 31.6525 19.1938 31.6684 17.9897 31.0053C16.8496 30.4854 15.9705 29.5836 15.134 28.6871ZM5.03241 33.8433C4.84594 36.6707 5.35741 39.5618 6.60945 42.1134C8.22379 45.9328 9.81682 49.8212 10.5361 53.927C10.8504 56.0542 11.0795 58.383 12.5713 60.0646C13.2533 61.0142 14.3775 61.8364 15.6135 61.6242C15.3205 60.8285 14.7291 60.2025 14.3508 59.4599C13.4504 57.8048 13.1307 55.9163 12.8963 54.0703C12.4914 51.1898 12.3262 48.2934 12.0332 45.4076C11.5271 42.2778 10.8131 38.9836 8.65002 36.5434C7.36068 35.1801 6.72134 33.3181 6.66273 31.4615C6.6574 30.8833 6.61478 30.2998 6.48159 29.7374C5.48528 30.8674 5.13364 32.3845 5.03241 33.8433ZM26.0348 49.3915C25.7204 49.4552 25.454 49.6939 25.3155 49.9803C25.2409 50.3676 25.6565 50.6063 25.9602 50.7495C26.6688 51.0731 27.7077 51.2588 28.2032 50.4843C28.4589 50.1448 29.1356 49.487 28.5335 49.1952C27.6971 49.1846 26.8659 49.3013 26.0348 49.3915ZM41.981 3.57449C42.924 2.75757 44.3732 2.81592 45.3962 3.44718C46.5789 4.22167 47.4048 5.65395 47.213 7.08623C47.0105 8.05169 46.6109 9.10203 45.7265 9.63781C46.0142 8.47607 45.9343 7.07031 44.922 6.27991C44.1495 5.62212 43.0839 5.78657 42.1568 5.86614C42.4818 5.56907 42.8335 5.17122 43.3023 5.11817C43.8138 5.0386 44.4158 5.19774 44.7568 4.77336C44.1122 3.87686 43.0146 3.64346 41.981 3.57449Z"/>
</mask>
<path fill-rule="evenodd" clip-rule="evenodd" d="M25.3475 0.296167C26.6528 0.13172 27.9688 -0.117603 29.2794 0.0627588C28.4003 0.312082 27.4573 0.248425 26.5995 0.598537C25.4487 0.996393 24.6442 2.09447 23.4081 2.29605C22.4651 2.49233 21.5061 2.29605 20.595 2.06795C19.0819 1.70192 17.3877 1.82924 16.0344 2.63556C15.1287 3.2403 14.4094 4.26941 14.4467 5.38341C14.4627 5.88205 14.7504 6.30113 14.9635 6.73081C14.7451 7.75993 14.8996 8.81027 15.2938 9.78103C15.5336 8.58747 15.9811 7.35677 16.9881 6.59819C17.8352 5.9298 18.9274 5.57438 20.009 5.61682C21.1705 5.57968 22.2307 6.2746 23.4028 6.14729C24.7081 6.16851 25.9335 5.39402 26.5249 4.24289C25.6778 4.85824 24.6229 5.25079 23.5627 5.0386C21.6127 4.66727 19.6627 3.59571 17.6381 4.1421C16.5992 4.37551 15.8586 5.19244 15.3205 6.06241C15.3578 5.05982 15.8426 4.03601 16.7856 3.5851C18.1975 2.92201 19.8438 2.99097 21.3409 3.29865C22.4918 3.62754 23.7331 3.77607 24.9053 3.46309C25.9549 3.09707 26.6688 2.18996 27.2549 1.29876C27.3881 1.04413 27.6811 1.2298 27.7024 1.4526C28.1073 2.54538 28.0274 3.72833 27.8622 4.86354C28.7733 3.81321 29.2848 2.51885 29.8175 1.25632C30.0253 0.736461 30.5794 0.62506 31.0856 0.662194C31.1548 1.1131 31.1921 1.57991 31.0696 2.02551C30.5262 4.39142 29.061 6.66715 26.7913 7.69097C25.5979 8.26388 24.2553 8.32223 22.9553 8.22675C21.8631 8.14187 22.1455 8.14187 21.7672 8.11535C23.0778 8.52381 24.3672 9.09672 25.7631 9.11264C27.5585 9.24526 29.3594 8.46016 30.5102 7.09153C32.0179 5.2561 32.6999 2.86896 32.8011 0.529576C34.8097 0.900906 36.845 1.09188 38.8642 1.41016C40.3827 1.63296 41.9331 1.5693 43.4622 1.74966C42.1409 2.20587 40.7663 2.51885 39.365 2.47111C38.5019 2.50294 37.6708 2.2324 36.813 2.17404C36.7651 2.22709 36.6638 2.33319 36.6159 2.38623C37.6069 3.71242 39.4716 4.18454 41.0433 3.77077C40.6917 4.1368 40.356 4.55587 39.8712 4.75214C38.9921 5.14469 38.0491 4.80519 37.1327 4.91659C37.2925 5.42054 37.5376 5.94571 38.0331 6.18442C39.0081 6.7149 40.1536 6.62472 41.2245 6.62472C40.5372 7.31433 39.7007 7.97212 38.6884 8.04108C37.8413 8.057 36.9942 7.87133 36.211 7.56365C35.4491 7.26659 34.927 6.61941 34.3409 6.08894C34.3835 6.1526 34.4634 6.28521 34.5061 6.34887C34.9642 7.51591 35.6569 8.71478 36.861 9.22934C38.0118 9.69616 39.3278 9.37257 40.3773 8.79966C41.0646 8.46016 41.6773 7.96151 42.4232 7.74402C42.972 7.55835 43.5474 7.60609 44.0908 7.86072C44.7142 8.50259 44.9646 9.54232 44.4851 10.338C44.0003 11.086 43.1958 11.5369 42.5724 12.1523C42.8228 11.3565 43.5634 10.3009 43.004 9.69616C42.0663 9.36196 41.2724 9.80756 40.3614 10.0357C38.8323 10.4813 37.2019 10.9958 35.6036 10.598C33.9573 10.2638 32.8651 8.44954 31.0589 8.69356C28.5762 9.11794 26.3065 10.3911 24.3299 11.9135C23.1684 12.8047 22.0442 13.9028 21.6553 15.3669C21.245 16.9477 21.0692 18.5869 20.4938 20.1253C20.4086 20.486 20.1049 20.9263 20.4246 21.2605C20.8455 21.8281 21.5967 21.3931 22.1561 21.3241C24.6762 20.8255 27.2495 20.104 29.8335 20.486C30.686 20.6717 31.7249 20.8626 32.1565 21.7273C32.6733 22.7352 32.7372 23.9075 32.7852 25.0268C32.4069 24.438 32.1298 23.7431 31.5331 23.3346C31.1175 23.027 30.5794 23.4354 30.4729 23.8598C30.1372 25.0799 30.2757 26.5546 29.2368 27.4723C27.777 28.7455 26.7008 30.878 27.484 32.8036C28.2299 34.2146 28.8958 35.7742 28.6987 37.4081C28.6188 38.3683 27.7557 39.0101 27.5852 39.9438C27.4307 40.5644 27.6118 41.4238 28.3151 41.6094C29.1729 41.9012 30.0147 41.3813 30.8671 41.3336C31.677 41.2381 32.4548 41.5405 33.2487 41.6413C33.4298 40.7872 33.1208 39.9438 33.1102 39.0897C32.8651 36.4957 33.2593 33.8964 33.1847 31.297C33.222 29.9868 33.0089 28.459 33.0569 27.1487C34.0319 30.8461 34.0585 34.9149 34.6552 38.6759C34.8097 39.4292 34.911 40.2302 35.3052 40.9092C35.8274 41.8057 37.1753 42.1134 38.0118 41.4715C38.4753 41.1373 38.6884 40.5856 38.9548 40.1029C39.3491 40.6015 39.5089 41.2275 39.2798 41.8269C38.8642 42.8561 37.5323 43.2645 37.2073 44.352C36.8769 45.3334 36.52 46.5163 35.4757 46.9566C34.1704 47.381 32.5667 46.9885 31.7516 45.8426C31.272 45.1848 30.6221 44.6331 29.8282 44.3891C28.9598 44.0868 28.0327 44.2883 27.1376 44.2565C26.2905 44.2618 25.502 43.5192 25.4913 42.6651C25.4594 41.7421 25.9069 40.8562 25.7631 39.9332C25.5926 38.225 24.2819 36.8776 22.87 36.0395C22.0496 35.5302 21.0692 35.8909 20.1741 35.7902C18.9274 35.753 17.718 34.9414 16.466 35.4029C15.5229 35.6894 15.118 36.7079 14.9848 37.5938C14.8783 38.5592 14.9049 39.5671 15.2406 40.4901C16.157 43.0842 17.4942 45.5403 18.043 48.2563C18.1496 49.8477 18.091 51.5187 18.7996 52.9934C18.9967 53.439 19.375 53.7573 19.7266 54.0862C20.2434 54.1286 20.8774 54.3302 21.293 53.9058C21.9004 53.317 21.6233 52.3781 21.4848 51.6513C21.1918 50.5055 21.1758 49.1687 21.9643 48.2085C22.5291 47.5401 23.3016 46.8187 24.25 46.9354C24.6016 46.9354 24.8786 47.1847 25.1663 47.3492C25.177 47.6091 25.193 47.869 25.2036 48.129C26.2319 48.4473 27.3241 48.2245 28.3204 47.9062C29.6257 47.4447 31.0003 47.0733 32.3962 47.137C33.4085 47.1741 34.2556 47.9751 35.2946 47.8531C35.9925 47.8531 36.4827 47.2378 37.1433 47.1317C38.2569 47.2325 39.0507 48.3465 40.2228 48.1926C40.9261 48.2298 41.379 47.6144 41.6827 47.068C41.7466 47.068 41.8798 47.0733 41.9437 47.0786C42.0609 47.2113 42.1355 47.2855 42.1782 47.4712C42.2847 48.6276 42.306 49.9379 41.5068 50.8768C41.3044 51.1474 40.8888 51.4179 40.5851 51.1315C40.1429 50.6912 39.8659 50.1129 39.365 49.7257C38.6138 49.1157 37.5909 48.93 36.6425 49.0467C35.4118 49.2058 34.1651 49.2483 32.929 49.1369C32.3962 49.1157 31.7675 48.9936 31.3307 49.3915C30.6434 50.0068 30.2438 51.2375 30.963 51.9749C31.5917 52.5001 32.4868 52.3675 33.2487 52.3462C34.6659 52.203 36.0938 52.0863 37.5163 52.1765C37.8786 52.2083 38.4273 52.3462 38.4273 52.8024C38.2675 53.5822 37.6015 54.1658 36.8663 54.4204C35.172 55.057 33.3179 55.0039 31.5331 54.9615C29.3913 54.8766 27.42 53.752 25.2622 53.8156C24.6655 53.8581 23.845 54.2878 24.0475 55.0039C24.4311 55.8633 25.2622 56.5317 25.3315 57.529C25.4221 59.1045 25.5446 60.8656 26.6422 62.1123C27.5958 63.0724 28.9704 63.7461 30.3503 63.5233C31.5917 63.3005 32.8278 62.9822 34.0958 62.9981C35.22 62.9398 36.3761 63.1573 37.4683 62.7966C38.6937 62.4199 39.7487 61.5659 40.4466 60.4996C41.4323 59.062 41.9171 57.3751 42.4499 55.736C43.1745 53.3754 43.7499 50.967 44.2773 48.5533C44.8687 45.9646 46.0994 43.5881 46.9679 41.0896C48.0867 37.6044 48.6728 33.8327 47.8523 30.2149C47.6925 30.2043 47.6339 30.1194 47.474 30.0982C47.1757 30.565 46.6056 30.9363 46.0888 31.1379C46.2486 30.5119 46.7175 29.9762 46.547 29.3078C45.9876 30.0239 45.3908 30.7029 44.4691 30.74C43.3023 30.9204 42.306 30.1937 41.2298 29.9125C40.8142 29.8064 41.0593 30.3316 41.2191 30.4589C41.8159 31.1538 42.7322 31.4297 43.5048 31.8806C42.9986 32.671 41.9437 32.4057 41.1925 32.1935C40.1802 31.9283 39.365 31.0318 38.2569 31.1432C38.0757 32.3315 38.3954 33.5038 38.4273 34.6921C38.4433 35.509 38.4966 36.3418 38.3101 37.1482C37.5909 33.9335 37.1114 30.6658 36.5519 27.4246C36.2909 25.9552 35.9126 24.4964 35.8647 23.0004C35.838 22.3161 36.0991 21.6 36.6585 21.1862C37.1487 20.8414 37.7294 20.6292 38.3208 20.5496C40.7236 20.3269 43.1585 20.7088 45.4281 21.5045C46.5523 21.8016 47.7724 22.3957 48.9232 21.8758C49.0084 20.1147 49.1789 18.3376 49.0457 16.5711C48.9392 15.0964 48.3851 13.627 47.3568 12.5448C46.5949 13.0806 45.8917 13.7384 44.9966 14.0567C44.2773 14.3431 43.4835 14.2741 42.7322 14.4227C42.2421 14.5182 41.8212 14.7993 41.3843 15.0221C41.5548 13.9824 42.3753 13.0434 43.4302 12.8472C44.2773 12.6456 45.1777 12.5501 45.9396 12.0992C47.1171 11.4467 47.8257 10.1895 48.1507 8.92697C48.4916 7.56365 48.172 6.13668 47.5912 4.88476C48.6781 5.79718 49.4826 7.06501 49.781 8.46016C50.106 9.90835 49.9035 11.4839 50.6388 12.8366C49.6584 12.5289 49.2908 11.5051 49.0084 10.6245C48.7953 11.3459 48.774 12.1257 48.9978 12.8419C49.3068 13.6959 50.4203 13.871 50.7027 14.741C50.8785 15.2078 50.8732 15.717 50.9584 16.1998C51.1289 15.7754 51.2675 15.3351 51.2515 14.8736C51.1822 13.2132 51.422 11.5316 51.033 9.90304C50.8945 9.39909 50.708 8.91106 50.5695 8.41241C51.747 9.10733 52.2158 10.529 52.1625 11.8393C52.1679 12.9267 51.7256 13.9559 51.7363 15.0486C51.715 17.1546 51.8162 19.372 50.9158 21.3347C50.708 21.8971 49.9888 22.1941 50.0101 22.8466C49.9675 24.1197 49.2322 25.2019 48.8806 26.3902C48.5183 28.1142 48.6248 29.8913 48.6728 31.6418C48.8326 34.2836 48.9552 36.9731 48.4437 39.5883C47.799 42.8136 46.888 45.9859 45.8011 49.0891C44.4904 52.9722 43.7658 57.0674 41.981 60.7755C40.9527 62.9822 38.8003 64.4888 36.4614 65.0352C33.6856 65.6611 30.8352 66.0271 27.9794 65.9953C25.7151 65.9847 23.4561 66.0325 21.1918 65.9529C19.4496 65.815 17.7233 65.5338 16.0078 65.2261C14.7344 64.945 13.3971 64.6638 12.3475 63.8416C11.4951 63.2369 10.8451 62.3934 10.275 61.5287C8.94305 59.4015 8.07461 57.0303 7.27543 54.6644C6.11397 51.1102 5.19757 47.4818 4.44635 43.8215C4.14799 42.4052 3.99348 40.957 3.58324 39.5671C3.27422 38.3895 2.60291 37.3604 2.22464 36.2092C1.63857 34.4056 1.14308 32.5383 1.18571 30.6286C1.12177 28.3635 1.70784 26.1143 1.48939 23.8439C1.27628 21.5363 0.972594 19.2341 0.834069 16.9159C0.80743 13.993 1.43079 11.0223 2.89062 8.46016C3.8443 6.68307 5.22954 5.17652 6.76929 3.88747C8.09059 2.86896 9.53977 1.95125 11.1807 1.53748C9.4119 2.66208 7.70166 4.15271 7.12626 6.24808C6.66806 7.76524 6.97708 9.44684 7.8242 10.773C8.2824 11.4732 8.94838 12.0886 9.79551 12.2743C9.32133 11.696 8.79387 11.1497 8.49551 10.4547C7.99469 9.33544 8.05863 8.09413 8.31969 6.92178C8.45822 8.23736 8.7033 9.54763 9.49715 10.6457C10.2271 11.7173 11.4098 12.7517 12.8004 12.5766C13.1254 12.513 13.3545 12.7994 13.5943 12.9692C14.3188 13.5792 15.134 14.1627 16.0824 14.359C16.7004 14.5022 17.3131 14.1893 17.75 13.7808C17.3024 13.3989 16.759 13.1655 16.2848 12.8153C14.2656 11.3884 12.7631 9.1869 12.2943 6.75203C12.1611 5.5956 12.0652 4.27472 12.8164 3.28804C13.5143 2.35971 14.6119 1.92472 15.6242 1.43138C14.0578 1.64357 12.4328 2.18996 11.4098 3.45779C10.5094 4.62483 10.4189 6.20034 10.6799 7.60079C10.9676 9.00124 11.4791 10.3752 12.3209 11.5475C11.4098 11.2611 10.7492 10.4866 10.275 9.69616C9.35329 8.1684 9.08157 6.23217 9.641 4.53465C10.1738 2.96445 11.5164 1.76558 13.0561 1.20328C14.8463 0.556099 16.7697 0.518966 18.6451 0.455309C20.8828 0.423481 23.1364 0.747069 25.3475 0.296167ZM3.67914 9.42562C2.7734 11.1656 2.37382 13.1708 2.51767 15.1176C3.1357 13.6535 3.65783 12.0833 4.782 10.9003C5.11766 10.4919 5.62913 10.1789 5.77298 9.64842C5.84757 8.96941 5.67708 8.29571 5.59716 7.62731C4.69676 7.85011 4.12668 8.67765 3.67914 9.42562ZM16.5299 9.22404C16.1356 10.1046 16.3488 11.1284 16.9029 11.8817C17.0467 11.0223 17.0094 10.0357 17.686 9.37787C18.4 8.5079 19.6041 8.44955 20.6323 8.32754C19.9717 8.15779 19.3323 7.86603 18.6451 7.85542C17.7553 7.84481 16.8336 8.36467 16.5299 9.22404ZM4.72872 13.3564C3.83897 14.3325 3.49799 15.664 3.39676 16.9477C3.16767 18.9954 4.22791 20.8732 4.42504 22.8731C4.47831 23.9871 3.75373 24.9207 3.38078 25.9233C2.3525 28.65 2.32054 31.8487 3.72176 34.4534C3.59389 33.0423 3.46603 31.5941 3.83897 30.2096C4.13733 29.1539 4.53159 28.093 5.2402 27.2442C6.0447 26.2575 6.87585 25.2125 7.15822 23.9447C7.39265 22.7299 7.07298 21.5151 6.93445 20.3109C6.76929 19.3614 6.76929 18.3906 6.7906 17.4305C6.74798 16.3165 7.73363 15.4253 7.51519 14.2848C7.06232 14.3962 6.56683 14.5129 6.24183 14.8736C5.72503 15.4253 5.5279 16.1892 5.37339 16.9159C5.0111 19.1439 6.14593 21.2976 5.90618 23.5203C5.68774 25.3982 4.14266 26.7084 3.57258 28.459C3.49799 26.2682 5.49593 24.5441 5.16028 22.3161C4.89389 20.3481 4.11069 18.4118 4.38774 16.4013C4.60618 14.8842 5.60249 13.6482 6.67872 12.6191C6.67872 12.513 6.68404 12.2902 6.68404 12.1841C5.83692 12.1151 5.24552 12.7888 4.72872 13.3564ZM14.3775 16.0247C13.6688 16.3907 13.4557 17.2077 13.0934 17.8495C12.5607 18.8999 11.4312 19.4728 10.8771 20.5125C10.5148 21.1226 10.2324 21.9819 10.7279 22.6079C11.1967 23.202 12.0225 23.202 12.7152 23.1384C14.2762 22.9527 15.8213 22.645 17.3397 22.2419C17.8086 21.2711 17.8459 20.1624 17.7926 19.1015C17.7287 18.1254 17.5315 17.0804 16.8709 16.3112C16.2529 15.6109 15.1606 15.6428 14.3775 16.0247ZM16.9188 25.8597C17.6328 25.8066 18.3094 25.5785 18.9807 25.361C20.5631 24.8677 22.3053 24.4752 23.925 25.0003C24.9479 25.3186 25.6778 26.1249 26.4876 26.7774C26.184 25.8968 25.7577 25.0428 25.1077 24.3638C24.4045 23.6529 23.3336 23.4566 22.3692 23.515C20.3713 23.7537 18.5278 24.6926 16.9188 25.8597ZM43.3716 24.1569C43.3716 24.2895 43.3716 24.5441 43.3663 24.6714C41.9277 24.9685 40.7982 25.8862 39.9405 26.6607C40.015 26.7084 40.0523 26.735 40.1269 26.7827C41.1712 25.865 43.6806 25.2549 44.9913 25.4777C44.4105 25.9711 43.5208 25.8544 43.02 26.475C42.8548 27.1275 43.5581 27.589 43.5314 28.2362C43.6007 28.8038 43.4142 29.4775 43.9204 29.8913C44.4531 30.4271 45.3962 30.1088 45.6785 29.4881C46.0941 28.6818 46.5576 27.8384 46.6003 26.9153C46.6695 26.2363 45.9343 25.9764 45.54 25.5626C46.4617 25.4088 47.1703 26.0454 47.7031 26.7031C47.847 26.0931 47.7298 25.3929 47.2343 24.9685C46.1687 24.0932 44.6929 23.9447 43.3716 24.1569ZM20.6909 25.7271C19.2205 26.0082 17.8086 26.5758 16.5086 27.3132C15.9598 27.536 15.832 28.3688 16.3221 28.7189C17.1053 29.4139 18.0803 29.8488 19.0446 30.2361C20.4672 30.7878 22.0815 30.6393 23.4721 30.061C24.4258 29.6791 25.6192 29.3237 26.0135 28.268C25.9975 27.5837 25.4327 27.101 24.9266 26.7191C23.7065 25.8809 22.1561 25.4565 20.6909 25.7271ZM15.134 28.6871C15.1287 30.2838 16.2688 31.6047 17.5848 32.3739C18.9221 33.1431 20.6856 32.9203 21.9164 32.045C21.927 31.9707 21.9377 31.8169 21.943 31.7373C20.6057 31.6525 19.1938 31.6684 17.9897 31.0053C16.8496 30.4854 15.9705 29.5836 15.134 28.6871ZM5.03241 33.8433C4.84594 36.6707 5.35741 39.5618 6.60945 42.1134C8.22379 45.9328 9.81682 49.8212 10.5361 53.927C10.8504 56.0542 11.0795 58.383 12.5713 60.0646C13.2533 61.0142 14.3775 61.8364 15.6135 61.6242C15.3205 60.8285 14.7291 60.2025 14.3508 59.4599C13.4504 57.8048 13.1307 55.9163 12.8963 54.0703C12.4914 51.1898 12.3262 48.2934 12.0332 45.4076C11.5271 42.2778 10.8131 38.9836 8.65002 36.5434C7.36068 35.1801 6.72134 33.3181 6.66273 31.4615C6.6574 30.8833 6.61478 30.2998 6.48159 29.7374C5.48528 30.8674 5.13364 32.3845 5.03241 33.8433ZM26.0348 49.3915C25.7204 49.4552 25.454 49.6939 25.3155 49.9803C25.2409 50.3676 25.6565 50.6063 25.9602 50.7495C26.6688 51.0731 27.7077 51.2588 28.2032 50.4843C28.4589 50.1448 29.1356 49.487 28.5335 49.1952C27.6971 49.1846 26.8659 49.3013 26.0348 49.3915ZM41.981 3.57449C42.924 2.75757 44.3732 2.81592 45.3962 3.44718C46.5789 4.22167 47.4048 5.65395 47.213 7.08623C47.0105 8.05169 46.6109 9.10203 45.7265 9.63781C46.0142 8.47607 45.9343 7.07031 44.922 6.27991C44.1495 5.62212 43.0839 5.78657 42.1568 5.86614C42.4818 5.56907 42.8335 5.17122 43.3023 5.11817C43.8138 5.0386 44.4158 5.19774 44.7568 4.77336C44.1122 3.87686 43.0146 3.64346 41.981 3.57449Z" stroke="#C58C1B" stroke-opacity="0.6" stroke-width="2" mask="url(#path-1-inside-1)"/>
</svg>
