<svg width="20" height="21" viewBox="0 0 20 21" fill="none" xmlns="http://www.w3.org/2000/svg">
<g clip-path="url(#clip0)">
<path d="M20.0391 10.5C20.0391 4.97656 15.5538 0.5 10.0196 0.5C4.48532 0.5 0 4.97656 0 10.5C0 16.0234 4.48532 20.5 10.0196 20.5C10.0783 20.5 10.137 20.5 10.1957 20.4961V12.7148H8.04305V10.2109H10.1957V8.36719C10.1957 6.23047 11.5029 5.06641 13.4129 5.06641C14.3288 5.06641 15.1155 5.13281 15.3425 5.16406V7.39844H14.0274C12.9902 7.39844 12.7867 7.89062 12.7867 8.61328V10.207H15.272L14.9472 12.7109H12.7867V20.1133C16.9746 18.9141 20.0391 15.0664 20.0391 10.5Z" fill="#707070"/>
</g>
<defs>
<clipPath id="clip0">
<rect width="20" height="20" fill="white" transform="translate(0 0.5)"/>
</clipPath>
</defs>
</svg>
