<svg width="756" height="49" viewBox="0 0 756 49" fill="none" xmlns="http://www.w3.org/2000/svg">
<rect y="28" width="756" height="1" fill="url(#paint0_radial)"/>
<path d="M360 0C354.477 0 350 4.47714 350 10C350 15.5229 354.477 20 360 20C365.523 20 370 15.5229 370 10C370 4.47717 365.523 0 360 0ZM350.736 10C350.736 8.92571 350.916 7.87939 351.273 6.88226L352.235 7.55037V15.0573C351.936 14.5991 351.679 14.1143 351.463 13.6058C350.981 12.4641 350.736 11.2509 350.736 10ZM366.551 16.5509C365.7 17.4019 364.709 18.07 363.606 18.5366C362.464 19.0196 361.251 19.2643 360 19.2643C358.749 19.2643 357.536 19.0196 356.394 18.5366C355.291 18.07 354.3 17.4019 353.449 16.5509C353.181 16.2823 352.931 16 352.699 15.7045H357.819L359.835 14.2449V6.30024L357.819 4.79889H352.331C352.658 4.31766 353.032 3.86662 353.449 3.44917C354.3 2.59799 355.291 1.9299 356.394 1.46342C357.536 0.980469 358.749 0.735685 360 0.735685C361.251 0.735685 362.464 0.980469 363.606 1.46342C364.709 1.9299 365.7 2.59799 366.551 3.44917C366.968 3.86659 367.342 4.31766 367.669 4.79889H366.205L365.876 5.52498L364.899 4.79889H362.625L360.623 6.30024V14.2449L362.615 15.7045H367.301C367.07 16 366.819 16.2823 366.551 16.5509ZM354.279 7.29512H356.11C356.623 7.29512 357.038 7.71026 357.038 8.22258V12.3282C357.038 12.8403 356.623 13.2556 356.11 13.2556H355.012V7.826L354.279 7.29512ZM368.009 14.6608V11.83H365.418V13.2556H364.298C363.809 13.2556 363.412 12.8588 363.412 12.3692V7.82704L362.679 7.29512H365.418V8.85126H367.793L368.266 5.81027C368.362 6.00104 368.453 6.19581 368.537 6.39407C369.02 7.53573 369.264 8.74887 369.264 9.99999C369.264 11.2509 369.02 12.464 368.537 13.6057C368.383 13.97 368.207 14.322 368.009 14.6608Z" fill="#707070"/>
<g clip-path="url(#clip0)">
<path d="M395.577 0.000488281C395.109 0.100378 390.99 0.639738 390.477 0.896011C390.359 1.13263 390.112 1.87089 390.034 1.9877C389.703 2.05893 388.361 2.31411 388.277 2.36296C388.23 2.50488 387.921 3.11077 387.85 3.18173C387.566 3.25269 386.242 3.49825 386.076 3.61669C385.982 4.18437 385.621 9.86468 387.987 13.5783C390.352 17.292 394.489 19.7639 395.577 20.0005H395.586C396.674 19.7639 400.803 17.292 403.168 13.5783C405.533 9.86441 405.182 4.18437 405.087 3.61669C404.921 3.49825 403.597 3.25269 403.313 3.18173C403.242 3.11077 402.934 2.50488 402.887 2.36296C402.802 2.31411 401.461 2.05866 401.13 1.9877C401.051 1.87089 400.805 1.13263 400.686 0.896011C400.175 0.640557 396.052 0.102288 395.577 0.000488281V0.000488281ZM395.577 1.45038C395.983 1.53717 399.507 2.00817 399.944 2.2265C400.045 2.42874 400.253 3.05625 400.319 3.15614C400.602 3.21673 401.757 3.42995 401.829 3.47171C401.869 3.59288 402.126 4.11901 402.187 4.1796C402.43 4.24018 403.564 4.44535 403.705 4.54633C403.786 5.03159 404.09 9.88399 402.068 13.0581C400.046 16.2324 396.516 18.3486 395.586 18.5506H395.577C394.647 18.3486 391.117 16.2321 389.096 13.0581C387.074 9.88399 387.377 5.03159 387.458 4.54633C387.6 4.44508 388.733 4.24018 388.976 4.1796C389.037 4.11901 389.294 3.59288 389.334 3.47171C389.406 3.42995 390.552 3.21673 390.835 3.15614C390.902 3.05625 391.118 2.42874 391.219 2.2265C391.657 2.00735 395.177 1.53553 395.577 1.45038V1.45038Z" fill="#707070"/>
<path d="M396.225 3.00234C396.093 3.01544 396.073 3.10844 396.072 3.14733C396.045 7.69037 396.058 12.51 396.021 17.1772C396.051 17.3248 396.286 17.0979 396.422 17.0237C398.145 16.0763 403.52 10.8709 400.43 9.0066C402.796 7.45969 402.374 5.98339 401.326 5.17718C399.158 3.50936 396.684 3.09527 396.396 3.0194C396.324 3.00043 396.27 2.99798 396.225 3.00234V3.00234ZM397.667 4.87014C397.7 4.85186 399.09 5.36707 399.85 5.88507C400.722 6.47895 400.427 7.04969 399.918 7.39466C399.642 7.58271 397.935 8.80907 397.65 8.87867C397.643 8.64205 397.642 5.97384 397.667 4.87014V4.87014ZM398.938 10.0642C399.128 10.07 399.309 10.1309 399.441 10.2689C399.559 10.3816 400.078 10.9418 398.972 12.546C398.56 13.2737 397.695 14.1862 397.599 14.2774C397.587 14.2807 397.582 14.2626 397.573 14.2689C397.582 13.7473 397.568 11.2225 397.599 10.5162C397.66 10.4843 398.366 10.0466 398.938 10.0642V10.0642Z" fill="#707070"/>
<path d="M390.351 4.63816C390.209 4.69875 389.003 5.46702 388.881 5.5882C388.848 6.65914 389.135 9.54855 390.192 11.8037C390.326 12.0889 390.471 12.3564 390.628 12.5984C390.93 13.1192 390.947 13.078 391.298 12.5793C391.541 12.2505 391.892 11.7628 391.98 11.6623C392.101 12.0665 392.884 14.5878 393.986 16.1115C394.475 16.7875 395.225 17.4261 395.222 17.163C395.192 14.5886 395.119 3.44468 395.199 2.99054C394.874 2.98289 393.808 3.12181 393.597 3.23125C393.58 3.63872 393.744 11.28 393.643 12.1489C392.896 10.3291 392.641 5.52679 392.788 3.54538C392.384 3.62617 391.398 4.02163 391.257 4.16328C391.075 4.52708 391.323 8.51718 391.582 9.85641C391.493 9.99532 391.239 10.3725 391.199 10.4331C390.687 9.51307 390.199 6.66869 390.351 4.63816Z" fill="#707070"/>
</g>
<path d="M54.1854 45.08C53.7654 45.08 53.3754 44.9933 53.0154 44.82C52.6554 44.64 52.3654 44.39 52.1454 44.07L52.7254 43.39C53.112 43.9433 53.5987 44.22 54.1854 44.22C54.5787 44.22 54.8754 44.1 55.0754 43.86C55.282 43.62 55.3854 43.2667 55.3854 42.8V38.87H52.8554V38H56.3754V42.75C56.3754 43.5233 56.1887 44.1067 55.8154 44.5C55.4487 44.8867 54.9054 45.08 54.1854 45.08ZM63.0723 45.08C62.3656 45.08 61.729 44.9267 61.1623 44.62C60.5956 44.3067 60.149 43.8767 59.8223 43.33C59.5023 42.7833 59.3423 42.1733 59.3423 41.5C59.3423 40.8267 59.5023 40.2167 59.8223 39.67C60.149 39.1233 60.5956 38.6967 61.1623 38.39C61.729 38.0767 62.3656 37.92 63.0723 37.92C63.7723 37.92 64.4056 38.0767 64.9723 38.39C65.539 38.6967 65.9823 39.1233 66.3023 39.67C66.6223 40.21 66.7823 40.82 66.7823 41.5C66.7823 42.18 66.6223 42.7933 66.3023 43.34C65.9823 43.88 65.539 44.3067 64.9723 44.62C64.4056 44.9267 63.7723 45.08 63.0723 45.08ZM63.0723 44.19C63.5856 44.19 64.0456 44.0733 64.4523 43.84C64.8656 43.6067 65.189 43.2867 65.4223 42.88C65.6623 42.4667 65.7823 42.0067 65.7823 41.5C65.7823 40.9933 65.6623 40.5367 65.4223 40.13C65.189 39.7167 64.8656 39.3933 64.4523 39.16C64.0456 38.9267 63.5856 38.81 63.0723 38.81C62.559 38.81 62.0923 38.9267 61.6723 39.16C61.259 39.3933 60.9323 39.7167 60.6923 40.13C60.459 40.5367 60.3423 40.9933 60.3423 41.5C60.3423 42.0067 60.459 42.4667 60.6923 42.88C60.9323 43.2867 61.259 43.6067 61.6723 43.84C62.0923 44.0733 62.559 44.19 63.0723 44.19ZM72.0907 41.89L70.8107 43.19V45H69.8107V38H70.8107V41.91L74.6107 38H75.7507L72.7607 41.15L75.9407 45H74.7707L72.0907 41.89ZM83.5782 44.13V45H78.4982V38H83.4382V38.87H79.4982V41.02H83.0082V41.87H79.4982V44.13H83.5782ZM91.3775 45L89.8675 42.85C89.6808 42.8633 89.5341 42.87 89.4275 42.87H87.6975V45H86.6975V38H89.4275C90.3341 38 91.0475 38.2167 91.5675 38.65C92.0875 39.0833 92.3475 39.68 92.3475 40.44C92.3475 40.98 92.2141 41.44 91.9475 41.82C91.6808 42.2 91.3008 42.4767 90.8075 42.65L92.4675 45H91.3775ZM89.3975 42.02C90.0308 42.02 90.5141 41.8833 90.8475 41.61C91.1808 41.3367 91.3475 40.9467 91.3475 40.44C91.3475 39.9333 91.1808 39.5467 90.8475 39.28C90.5141 39.0067 90.0308 38.87 89.3975 38.87H87.6975V42.02H89.3975ZM101.439 39.65C102.172 39.65 102.732 39.83 103.119 40.19C103.512 40.55 103.709 41.0867 103.709 41.8V45H102.799V44.3C102.639 44.5467 102.409 44.7367 102.109 44.87C101.815 44.9967 101.465 45.06 101.059 45.06C100.465 45.06 99.9886 44.9167 99.6286 44.63C99.2753 44.3433 99.0986 43.9667 99.0986 43.5C99.0986 43.0333 99.2686 42.66 99.6086 42.38C99.9486 42.0933 100.489 41.95 101.229 41.95H102.749V41.76C102.749 41.3467 102.629 41.03 102.389 40.81C102.149 40.59 101.795 40.48 101.329 40.48C101.015 40.48 100.709 40.5333 100.409 40.64C100.109 40.74 99.8553 40.8767 99.6486 41.05L99.2486 40.33C99.522 40.11 99.8486 39.9433 100.229 39.83C100.609 39.71 101.012 39.65 101.439 39.65ZM101.219 44.32C101.585 44.32 101.902 44.24 102.169 44.08C102.435 43.9133 102.629 43.68 102.749 43.38V42.64H101.269C100.455 42.64 100.049 42.9133 100.049 43.46C100.049 43.7267 100.152 43.9367 100.359 44.09C100.565 44.2433 100.852 44.32 101.219 44.32ZM109.815 39.65C110.489 39.65 111.022 39.8467 111.415 40.24C111.815 40.6267 112.015 41.1967 112.015 41.95V45H111.055V42.06C111.055 41.5467 110.932 41.16 110.685 40.9C110.439 40.64 110.085 40.51 109.625 40.51C109.105 40.51 108.695 40.6633 108.395 40.97C108.095 41.27 107.945 41.7033 107.945 42.27V45H106.985V39.7H107.905V40.5C108.099 40.2267 108.359 40.0167 108.685 39.87C109.019 39.7233 109.395 39.65 109.815 39.65ZM120.321 37.58V45H119.401V44.16C119.188 44.4533 118.918 44.6767 118.591 44.83C118.264 44.9833 117.904 45.06 117.511 45.06C116.998 45.06 116.538 44.9467 116.131 44.72C115.724 44.4933 115.404 44.1767 115.171 43.77C114.944 43.3567 114.831 42.8833 114.831 42.35C114.831 41.8167 114.944 41.3467 115.171 40.94C115.404 40.5333 115.724 40.2167 116.131 39.99C116.538 39.7633 116.998 39.65 117.511 39.65C117.891 39.65 118.241 39.7233 118.561 39.87C118.881 40.01 119.148 40.22 119.361 40.5V37.58H120.321ZM117.591 44.22C117.924 44.22 118.228 44.1433 118.501 43.99C118.774 43.83 118.988 43.61 119.141 43.33C119.294 43.0433 119.371 42.7167 119.371 42.35C119.371 41.9833 119.294 41.66 119.141 41.38C118.988 41.0933 118.774 40.8733 118.501 40.72C118.228 40.5667 117.924 40.49 117.591 40.49C117.251 40.49 116.944 40.5667 116.671 40.72C116.404 40.8733 116.191 41.0933 116.031 41.38C115.878 41.66 115.801 41.9833 115.801 42.35C115.801 42.7167 115.878 43.0433 116.031 43.33C116.191 43.61 116.404 43.83 116.671 43.99C116.944 44.1433 117.251 44.22 117.591 44.22ZM129.753 39.65C130.486 39.65 131.046 39.83 131.433 40.19C131.826 40.55 132.023 41.0867 132.023 41.8V45H131.113V44.3C130.953 44.5467 130.723 44.7367 130.423 44.87C130.13 44.9967 129.78 45.06 129.373 45.06C128.78 45.06 128.303 44.9167 127.943 44.63C127.59 44.3433 127.413 43.9667 127.413 43.5C127.413 43.0333 127.583 42.66 127.923 42.38C128.263 42.0933 128.803 41.95 129.543 41.95H131.063V41.76C131.063 41.3467 130.943 41.03 130.703 40.81C130.463 40.59 130.11 40.48 129.643 40.48C129.33 40.48 129.023 40.5333 128.723 40.64C128.423 40.74 128.17 40.8767 127.963 41.05L127.563 40.33C127.836 40.11 128.163 39.9433 128.543 39.83C128.923 39.71 129.326 39.65 129.753 39.65ZM129.533 44.32C129.9 44.32 130.216 44.24 130.483 44.08C130.75 43.9133 130.943 43.68 131.063 43.38V42.64H129.583C128.77 42.64 128.363 42.9133 128.363 43.46C128.363 43.7267 128.466 43.9367 128.673 44.09C128.88 44.2433 129.166 44.32 129.533 44.32ZM135.3 37.58H136.26V45H135.3V37.58ZM139.593 37.58H140.553V45H139.593V37.58ZM148.991 40.59C149.158 40.2833 149.404 40.05 149.731 39.89C150.058 39.73 150.454 39.65 150.921 39.65V40.58C150.868 40.5733 150.794 40.57 150.701 40.57C150.181 40.57 149.771 40.7267 149.471 41.04C149.178 41.3467 149.031 41.7867 149.031 42.36V45H148.071V39.7H148.991V40.59ZM158.346 42.38C158.346 42.4533 158.339 42.55 158.326 42.67H154.026C154.086 43.1367 154.289 43.5133 154.636 43.8C154.989 44.08 155.426 44.22 155.946 44.22C156.579 44.22 157.089 44.0067 157.476 43.58L158.006 44.2C157.766 44.48 157.466 44.6933 157.106 44.84C156.752 44.9867 156.356 45.06 155.916 45.06C155.356 45.06 154.859 44.9467 154.426 44.72C153.992 44.4867 153.656 44.1633 153.416 43.75C153.182 43.3367 153.066 42.87 153.066 42.35C153.066 41.8367 153.179 41.3733 153.406 40.96C153.639 40.5467 153.956 40.2267 154.356 40C154.762 39.7667 155.219 39.65 155.726 39.65C156.232 39.65 156.682 39.7667 157.076 40C157.476 40.2267 157.786 40.5467 158.006 40.96C158.232 41.3733 158.346 41.8467 158.346 42.38ZM155.726 40.46C155.266 40.46 154.879 40.6 154.566 40.88C154.259 41.16 154.079 41.5267 154.026 41.98H157.426C157.372 41.5333 157.189 41.17 156.876 40.89C156.569 40.6033 156.186 40.46 155.726 40.46ZM161.179 37.58H162.139V45H161.179V37.58ZM167.402 39.65C168.135 39.65 168.695 39.83 169.082 40.19C169.475 40.55 169.672 41.0867 169.672 41.8V45H168.762V44.3C168.602 44.5467 168.372 44.7367 168.072 44.87C167.778 44.9967 167.428 45.06 167.022 45.06C166.428 45.06 165.952 44.9167 165.592 44.63C165.238 44.3433 165.062 43.9667 165.062 43.5C165.062 43.0333 165.232 42.66 165.572 42.38C165.912 42.0933 166.452 41.95 167.192 41.95H168.712V41.76C168.712 41.3467 168.592 41.03 168.352 40.81C168.112 40.59 167.758 40.48 167.292 40.48C166.978 40.48 166.672 40.5333 166.372 40.64C166.072 40.74 165.818 40.8767 165.612 41.05L165.212 40.33C165.485 40.11 165.812 39.9433 166.192 39.83C166.572 39.71 166.975 39.65 167.402 39.65ZM167.182 44.32C167.548 44.32 167.865 44.24 168.132 44.08C168.398 43.9133 168.592 43.68 168.712 43.38V42.64H167.232C166.418 42.64 166.012 42.9133 166.012 43.46C166.012 43.7267 166.115 43.9367 166.322 44.09C166.528 44.2433 166.815 44.32 167.182 44.32ZM175.928 44.69C175.788 44.81 175.615 44.9033 175.408 44.97C175.201 45.03 174.988 45.06 174.768 45.06C174.235 45.06 173.821 44.9167 173.528 44.63C173.235 44.3433 173.088 43.9333 173.088 43.4V40.49H172.188V39.7H173.088V38.54H174.048V39.7H175.568V40.49H174.048V43.36C174.048 43.6467 174.118 43.8667 174.258 44.02C174.405 44.1733 174.611 44.25 174.878 44.25C175.171 44.25 175.421 44.1667 175.628 44L175.928 44.69ZM183.203 42.38C183.203 42.4533 183.196 42.55 183.183 42.67H178.883C178.943 43.1367 179.146 43.5133 179.493 43.8C179.846 44.08 180.283 44.22 180.803 44.22C181.436 44.22 181.946 44.0067 182.333 43.58L182.863 44.2C182.623 44.48 182.323 44.6933 181.963 44.84C181.61 44.9867 181.213 45.06 180.773 45.06C180.213 45.06 179.716 44.9467 179.283 44.72C178.85 44.4867 178.513 44.1633 178.273 43.75C178.04 43.3367 177.923 42.87 177.923 42.35C177.923 41.8367 178.036 41.3733 178.263 40.96C178.496 40.5467 178.813 40.2267 179.213 40C179.62 39.7667 180.076 39.65 180.583 39.65C181.09 39.65 181.54 39.7667 181.933 40C182.333 40.2267 182.643 40.5467 182.863 40.96C183.09 41.3733 183.203 41.8467 183.203 42.38ZM180.583 40.46C180.123 40.46 179.736 40.6 179.423 40.88C179.116 41.16 178.936 41.5267 178.883 41.98H182.283C182.23 41.5333 182.046 41.17 181.733 40.89C181.426 40.6033 181.043 40.46 180.583 40.46ZM191.036 37.58V45H190.116V44.16C189.903 44.4533 189.633 44.6767 189.306 44.83C188.979 44.9833 188.619 45.06 188.226 45.06C187.713 45.06 187.253 44.9467 186.846 44.72C186.439 44.4933 186.119 44.1767 185.886 43.77C185.659 43.3567 185.546 42.8833 185.546 42.35C185.546 41.8167 185.659 41.3467 185.886 40.94C186.119 40.5333 186.439 40.2167 186.846 39.99C187.253 39.7633 187.713 39.65 188.226 39.65C188.606 39.65 188.956 39.7233 189.276 39.87C189.596 40.01 189.863 40.22 190.076 40.5V37.58H191.036ZM188.306 44.22C188.639 44.22 188.943 44.1433 189.216 43.99C189.489 43.83 189.703 43.61 189.856 43.33C190.009 43.0433 190.086 42.7167 190.086 42.35C190.086 41.9833 190.009 41.66 189.856 41.38C189.703 41.0933 189.489 40.8733 189.216 40.72C188.943 40.5667 188.639 40.49 188.306 40.49C187.966 40.49 187.659 40.5667 187.386 40.72C187.119 40.8733 186.906 41.0933 186.746 41.38C186.593 41.66 186.516 41.9833 186.516 42.35C186.516 42.7167 186.593 43.0433 186.746 43.33C186.906 43.61 187.119 43.83 187.386 43.99C187.659 44.1433 187.966 44.22 188.306 44.22ZM200.848 45.06C200.308 45.06 199.825 44.9433 199.398 44.71C198.978 44.4767 198.648 44.1567 198.408 43.75C198.168 43.3367 198.048 42.87 198.048 42.35C198.048 41.83 198.168 41.3667 198.408 40.96C198.648 40.5467 198.978 40.2267 199.398 40C199.825 39.7667 200.308 39.65 200.848 39.65C201.328 39.65 201.755 39.7467 202.128 39.94C202.508 40.1333 202.801 40.4133 203.008 40.78L202.278 41.25C202.111 40.9967 201.905 40.8067 201.658 40.68C201.411 40.5533 201.138 40.49 200.838 40.49C200.491 40.49 200.178 40.5667 199.898 40.72C199.625 40.8733 199.408 41.0933 199.248 41.38C199.095 41.66 199.018 41.9833 199.018 42.35C199.018 42.7233 199.095 43.0533 199.248 43.34C199.408 43.62 199.625 43.8367 199.898 43.99C200.178 44.1433 200.491 44.22 200.838 44.22C201.138 44.22 201.411 44.1567 201.658 44.03C201.905 43.9033 202.111 43.7133 202.278 43.46L203.008 43.92C202.801 44.2867 202.508 44.57 202.128 44.77C201.755 44.9633 201.328 45.06 200.848 45.06ZM208.512 39.65C209.186 39.65 209.719 39.8467 210.112 40.24C210.512 40.6267 210.712 41.1967 210.712 41.95V45H209.752V42.06C209.752 41.5467 209.629 41.16 209.382 40.9C209.136 40.64 208.782 40.51 208.322 40.51C207.802 40.51 207.392 40.6633 207.092 40.97C206.792 41.27 206.642 41.7033 206.642 42.27V45H205.682V37.58H206.642V40.45C206.842 40.1967 207.102 40 207.422 39.86C207.749 39.72 208.112 39.65 208.512 39.65ZM215.919 39.65C216.652 39.65 217.212 39.83 217.599 40.19C217.992 40.55 218.189 41.0867 218.189 41.8V45H217.279V44.3C217.119 44.5467 216.889 44.7367 216.589 44.87C216.296 44.9967 215.946 45.06 215.539 45.06C214.946 45.06 214.469 44.9167 214.109 44.63C213.756 44.3433 213.579 43.9667 213.579 43.5C213.579 43.0333 213.749 42.66 214.089 42.38C214.429 42.0933 214.969 41.95 215.709 41.95H217.229V41.76C217.229 41.3467 217.109 41.03 216.869 40.81C216.629 40.59 216.276 40.48 215.809 40.48C215.496 40.48 215.189 40.5333 214.889 40.64C214.589 40.74 214.336 40.8767 214.129 41.05L213.729 40.33C214.002 40.11 214.329 39.9433 214.709 39.83C215.089 39.71 215.492 39.65 215.919 39.65ZM215.699 44.32C216.066 44.32 216.382 44.24 216.649 44.08C216.916 43.9133 217.109 43.68 217.229 43.38V42.64H215.749C214.936 42.64 214.529 42.9133 214.529 43.46C214.529 43.7267 214.632 43.9367 214.839 44.09C215.046 44.2433 215.332 44.32 215.699 44.32ZM222.386 40.59C222.552 40.2833 222.799 40.05 223.126 39.89C223.452 39.73 223.849 39.65 224.316 39.65V40.58C224.262 40.5733 224.189 40.57 224.096 40.57C223.576 40.57 223.166 40.7267 222.866 41.04C222.572 41.3467 222.426 41.7867 222.426 42.36V45H221.466V39.7H222.386V40.59ZM228.919 39.65C229.652 39.65 230.212 39.83 230.599 40.19C230.992 40.55 231.189 41.0867 231.189 41.8V45H230.279V44.3C230.119 44.5467 229.889 44.7367 229.589 44.87C229.296 44.9967 228.946 45.06 228.539 45.06C227.946 45.06 227.469 44.9167 227.109 44.63C226.756 44.3433 226.579 43.9667 226.579 43.5C226.579 43.0333 226.749 42.66 227.089 42.38C227.429 42.0933 227.969 41.95 228.709 41.95H230.229V41.76C230.229 41.3467 230.109 41.03 229.869 40.81C229.629 40.59 229.276 40.48 228.809 40.48C228.496 40.48 228.189 40.5333 227.889 40.64C227.589 40.74 227.336 40.8767 227.129 41.05L226.729 40.33C227.002 40.11 227.329 39.9433 227.709 39.83C228.089 39.71 228.492 39.65 228.919 39.65ZM228.699 44.32C229.066 44.32 229.382 44.24 229.649 44.08C229.916 43.9133 230.109 43.68 230.229 43.38V42.64H228.749C227.936 42.64 227.529 42.9133 227.529 43.46C227.529 43.7267 227.632 43.9367 227.839 44.09C228.046 44.2433 228.332 44.32 228.699 44.32ZM236.805 45.06C236.265 45.06 235.782 44.9433 235.355 44.71C234.935 44.4767 234.605 44.1567 234.365 43.75C234.125 43.3367 234.005 42.87 234.005 42.35C234.005 41.83 234.125 41.3667 234.365 40.96C234.605 40.5467 234.935 40.2267 235.355 40C235.782 39.7667 236.265 39.65 236.805 39.65C237.285 39.65 237.712 39.7467 238.085 39.94C238.465 40.1333 238.758 40.4133 238.965 40.78L238.235 41.25C238.068 40.9967 237.862 40.8067 237.615 40.68C237.368 40.5533 237.095 40.49 236.795 40.49C236.448 40.49 236.135 40.5667 235.855 40.72C235.582 40.8733 235.365 41.0933 235.205 41.38C235.052 41.66 234.975 41.9833 234.975 42.35C234.975 42.7233 235.052 43.0533 235.205 43.34C235.365 43.62 235.582 43.8367 235.855 43.99C236.135 44.1433 236.448 44.22 236.795 44.22C237.095 44.22 237.368 44.1567 237.615 44.03C237.862 43.9033 238.068 43.7133 238.235 43.46L238.965 43.92C238.758 44.2867 238.465 44.57 238.085 44.77C237.712 44.9633 237.285 45.06 236.805 45.06ZM244.756 44.69C244.616 44.81 244.443 44.9033 244.236 44.97C244.03 45.03 243.816 45.06 243.596 45.06C243.063 45.06 242.65 44.9167 242.356 44.63C242.063 44.3433 241.916 43.9333 241.916 43.4V40.49H241.016V39.7H241.916V38.54H242.876V39.7H244.396V40.49H242.876V43.36C242.876 43.6467 242.946 43.8667 243.086 44.02C243.233 44.1733 243.44 44.25 243.706 44.25C244 44.25 244.25 44.1667 244.456 44L244.756 44.69ZM252.031 42.38C252.031 42.4533 252.024 42.55 252.011 42.67H247.711C247.771 43.1367 247.974 43.5133 248.321 43.8C248.674 44.08 249.111 44.22 249.631 44.22C250.264 44.22 250.774 44.0067 251.161 43.58L251.691 44.2C251.451 44.48 251.151 44.6933 250.791 44.84C250.438 44.9867 250.041 45.06 249.601 45.06C249.041 45.06 248.544 44.9467 248.111 44.72C247.678 44.4867 247.341 44.1633 247.101 43.75C246.868 43.3367 246.751 42.87 246.751 42.35C246.751 41.8367 246.864 41.3733 247.091 40.96C247.324 40.5467 247.641 40.2267 248.041 40C248.448 39.7667 248.904 39.65 249.411 39.65C249.918 39.65 250.368 39.7667 250.761 40C251.161 40.2267 251.471 40.5467 251.691 40.96C251.918 41.3733 252.031 41.8467 252.031 42.38ZM249.411 40.46C248.951 40.46 248.564 40.6 248.251 40.88C247.944 41.16 247.764 41.5267 247.711 41.98H251.111C251.058 41.5333 250.874 41.17 250.561 40.89C250.254 40.6033 249.871 40.46 249.411 40.46ZM255.784 40.59C255.951 40.2833 256.197 40.05 256.524 39.89C256.851 39.73 257.247 39.65 257.714 39.65V40.58C257.661 40.5733 257.587 40.57 257.494 40.57C256.974 40.57 256.564 40.7267 256.264 41.04C255.971 41.3467 255.824 41.7867 255.824 42.36V45H254.864V39.7H255.784V40.59ZM261.956 45.06C261.523 45.06 261.106 45.0033 260.706 44.89C260.306 44.77 259.993 44.62 259.766 44.44L260.166 43.68C260.4 43.8467 260.683 43.98 261.016 44.08C261.35 44.18 261.686 44.23 262.026 44.23C262.866 44.23 263.286 43.99 263.286 43.51C263.286 43.35 263.23 43.2233 263.116 43.13C263.003 43.0367 262.86 42.97 262.686 42.93C262.52 42.8833 262.28 42.8333 261.966 42.78C261.54 42.7133 261.19 42.6367 260.916 42.55C260.65 42.4633 260.42 42.3167 260.226 42.11C260.033 41.9033 259.936 41.6133 259.936 41.24C259.936 40.76 260.136 40.3767 260.536 40.09C260.936 39.7967 261.473 39.65 262.146 39.65C262.5 39.65 262.853 39.6933 263.206 39.78C263.56 39.8667 263.85 39.9833 264.076 40.13L263.666 40.89C263.233 40.61 262.723 40.47 262.136 40.47C261.73 40.47 261.42 40.5367 261.206 40.67C260.993 40.8033 260.886 40.98 260.886 41.2C260.886 41.3733 260.946 41.51 261.066 41.61C261.186 41.71 261.333 41.7833 261.506 41.83C261.686 41.8767 261.936 41.93 262.256 41.99C262.683 42.0633 263.026 42.1433 263.286 42.23C263.553 42.31 263.78 42.45 263.966 42.65C264.153 42.85 264.246 43.13 264.246 43.49C264.246 43.97 264.04 44.3533 263.626 44.64C263.22 44.92 262.663 45.06 261.956 45.06ZM273.062 39.65C273.795 39.65 274.355 39.83 274.742 40.19C275.135 40.55 275.332 41.0867 275.332 41.8V45H274.422V44.3C274.262 44.5467 274.032 44.7367 273.732 44.87C273.438 44.9967 273.088 45.06 272.682 45.06C272.088 45.06 271.612 44.9167 271.252 44.63C270.898 44.3433 270.722 43.9667 270.722 43.5C270.722 43.0333 270.892 42.66 271.232 42.38C271.572 42.0933 272.112 41.95 272.852 41.95H274.372V41.76C274.372 41.3467 274.252 41.03 274.012 40.81C273.772 40.59 273.418 40.48 272.952 40.48C272.638 40.48 272.332 40.5333 272.032 40.64C271.732 40.74 271.478 40.8767 271.272 41.05L270.872 40.33C271.145 40.11 271.472 39.9433 271.852 39.83C272.232 39.71 272.635 39.65 273.062 39.65ZM272.842 44.32C273.208 44.32 273.525 44.24 273.792 44.08C274.058 43.9133 274.252 43.68 274.372 43.38V42.64H272.892C272.078 42.64 271.672 42.9133 271.672 43.46C271.672 43.7267 271.775 43.9367 271.982 44.09C272.188 44.2433 272.475 44.32 272.842 44.32ZM281.438 39.65C282.112 39.65 282.645 39.8467 283.038 40.24C283.438 40.6267 283.638 41.1967 283.638 41.95V45H282.678V42.06C282.678 41.5467 282.555 41.16 282.308 40.9C282.062 40.64 281.708 40.51 281.248 40.51C280.728 40.51 280.318 40.6633 280.018 40.97C279.718 41.27 279.568 41.7033 279.568 42.27V45H278.608V39.7H279.528V40.5C279.722 40.2267 279.982 40.0167 280.308 39.87C280.642 39.7233 281.018 39.65 281.438 39.65ZM291.944 37.58V45H291.024V44.16C290.811 44.4533 290.541 44.6767 290.214 44.83C289.888 44.9833 289.528 45.06 289.134 45.06C288.621 45.06 288.161 44.9467 287.754 44.72C287.348 44.4933 287.028 44.1767 286.794 43.77C286.568 43.3567 286.454 42.8833 286.454 42.35C286.454 41.8167 286.568 41.3467 286.794 40.94C287.028 40.5333 287.348 40.2167 287.754 39.99C288.161 39.7633 288.621 39.65 289.134 39.65C289.514 39.65 289.864 39.7233 290.184 39.87C290.504 40.01 290.771 40.22 290.984 40.5V37.58H291.944ZM289.214 44.22C289.548 44.22 289.851 44.1433 290.124 43.99C290.398 43.83 290.611 43.61 290.764 43.33C290.918 43.0433 290.994 42.7167 290.994 42.35C290.994 41.9833 290.918 41.66 290.764 41.38C290.611 41.0933 290.398 40.8733 290.124 40.72C289.851 40.5667 289.548 40.49 289.214 40.49C288.874 40.49 288.568 40.5667 288.294 40.72C288.028 40.8733 287.814 41.0933 287.654 41.38C287.501 41.66 287.424 41.9833 287.424 42.35C287.424 42.7167 287.501 43.0433 287.654 43.33C287.814 43.61 288.028 43.83 288.294 43.99C288.568 44.1433 288.874 44.22 289.214 44.22ZM304.236 42.38C304.236 42.4533 304.229 42.55 304.216 42.67H299.916C299.976 43.1367 300.179 43.5133 300.526 43.8C300.879 44.08 301.316 44.22 301.836 44.22C302.469 44.22 302.979 44.0067 303.366 43.58L303.896 44.2C303.656 44.48 303.356 44.6933 302.996 44.84C302.643 44.9867 302.246 45.06 301.806 45.06C301.246 45.06 300.749 44.9467 300.316 44.72C299.883 44.4867 299.546 44.1633 299.306 43.75C299.073 43.3367 298.956 42.87 298.956 42.35C298.956 41.8367 299.069 41.3733 299.296 40.96C299.529 40.5467 299.846 40.2267 300.246 40C300.653 39.7667 301.109 39.65 301.616 39.65C302.123 39.65 302.573 39.7667 302.966 40C303.366 40.2267 303.676 40.5467 303.896 40.96C304.123 41.3733 304.236 41.8467 304.236 42.38ZM301.616 40.46C301.156 40.46 300.769 40.6 300.456 40.88C300.149 41.16 299.969 41.5267 299.916 41.98H303.316C303.263 41.5333 303.079 41.17 302.766 40.89C302.459 40.6033 302.076 40.46 301.616 40.46ZM307.069 37.58H308.029V45H307.069V37.58ZM316.152 42.38C316.152 42.4533 316.145 42.55 316.132 42.67H311.832C311.892 43.1367 312.095 43.5133 312.442 43.8C312.795 44.08 313.232 44.22 313.752 44.22C314.385 44.22 314.895 44.0067 315.282 43.58L315.812 44.2C315.572 44.48 315.272 44.6933 314.912 44.84C314.559 44.9867 314.162 45.06 313.722 45.06C313.162 45.06 312.665 44.9467 312.232 44.72C311.799 44.4867 311.462 44.1633 311.222 43.75C310.989 43.3367 310.872 42.87 310.872 42.35C310.872 41.8367 310.985 41.3733 311.212 40.96C311.445 40.5467 311.762 40.2267 312.162 40C312.569 39.7667 313.025 39.65 313.532 39.65C314.039 39.65 314.489 39.7667 314.882 40C315.282 40.2267 315.592 40.5467 315.812 40.96C316.039 41.3733 316.152 41.8467 316.152 42.38ZM313.532 40.46C313.072 40.46 312.685 40.6 312.372 40.88C312.065 41.16 311.885 41.5267 311.832 41.98H315.232C315.179 41.5333 314.995 41.17 314.682 40.89C314.375 40.6033 313.992 40.46 313.532 40.46ZM325.615 39.65C326.282 39.65 326.809 39.8433 327.195 40.23C327.589 40.6167 327.785 41.19 327.785 41.95V45H326.825V42.06C326.825 41.5467 326.705 41.16 326.465 40.9C326.232 40.64 325.895 40.51 325.455 40.51C324.969 40.51 324.582 40.6633 324.295 40.97C324.009 41.27 323.865 41.7033 323.865 42.27V45H322.905V42.06C322.905 41.5467 322.785 41.16 322.545 40.9C322.312 40.64 321.975 40.51 321.535 40.51C321.049 40.51 320.662 40.6633 320.375 40.97C320.089 41.27 319.945 41.7033 319.945 42.27V45H318.985V39.7H319.905V40.49C320.099 40.2167 320.352 40.01 320.665 39.87C320.979 39.7233 321.335 39.65 321.735 39.65C322.149 39.65 322.515 39.7333 322.835 39.9C323.155 40.0667 323.402 40.31 323.575 40.63C323.775 40.3233 324.052 40.0833 324.405 39.91C324.765 39.7367 325.169 39.65 325.615 39.65ZM335.871 42.38C335.871 42.4533 335.864 42.55 335.851 42.67H331.551C331.611 43.1367 331.814 43.5133 332.161 43.8C332.514 44.08 332.951 44.22 333.471 44.22C334.104 44.22 334.614 44.0067 335.001 43.58L335.531 44.2C335.291 44.48 334.991 44.6933 334.631 44.84C334.278 44.9867 333.881 45.06 333.441 45.06C332.881 45.06 332.384 44.9467 331.951 44.72C331.518 44.4867 331.181 44.1633 330.941 43.75C330.708 43.3367 330.591 42.87 330.591 42.35C330.591 41.8367 330.704 41.3733 330.931 40.96C331.164 40.5467 331.481 40.2267 331.881 40C332.288 39.7667 332.744 39.65 333.251 39.65C333.758 39.65 334.208 39.7667 334.601 40C335.001 40.2267 335.311 40.5467 335.531 40.96C335.758 41.3733 335.871 41.8467 335.871 42.38ZM333.251 40.46C332.791 40.46 332.404 40.6 332.091 40.88C331.784 41.16 331.604 41.5267 331.551 41.98H334.951C334.898 41.5333 334.714 41.17 334.401 40.89C334.094 40.6033 333.711 40.46 333.251 40.46ZM341.534 39.65C342.207 39.65 342.741 39.8467 343.134 40.24C343.534 40.6267 343.734 41.1967 343.734 41.95V45H342.774V42.06C342.774 41.5467 342.651 41.16 342.404 40.9C342.157 40.64 341.804 40.51 341.344 40.51C340.824 40.51 340.414 40.6633 340.114 40.97C339.814 41.27 339.664 41.7033 339.664 42.27V45H338.704V39.7H339.624V40.5C339.817 40.2267 340.077 40.0167 340.404 39.87C340.737 39.7233 341.114 39.65 341.534 39.65ZM349.991 44.69C349.851 44.81 349.677 44.9033 349.471 44.97C349.264 45.03 349.051 45.06 348.831 45.06C348.297 45.06 347.884 44.9167 347.591 44.63C347.297 44.3433 347.151 43.9333 347.151 43.4V40.49H346.251V39.7H347.151V38.54H348.111V39.7H349.631V40.49H348.111V43.36C348.111 43.6467 348.181 43.8667 348.321 44.02C348.467 44.1733 348.674 44.25 348.941 44.25C349.234 44.25 349.484 44.1667 349.691 44L349.991 44.69ZM354.171 45.06C353.738 45.06 353.321 45.0033 352.921 44.89C352.521 44.77 352.208 44.62 351.981 44.44L352.381 43.68C352.615 43.8467 352.898 43.98 353.231 44.08C353.565 44.18 353.901 44.23 354.241 44.23C355.081 44.23 355.501 43.99 355.501 43.51C355.501 43.35 355.445 43.2233 355.331 43.13C355.218 43.0367 355.075 42.97 354.901 42.93C354.735 42.8833 354.495 42.8333 354.181 42.78C353.755 42.7133 353.405 42.6367 353.131 42.55C352.865 42.4633 352.635 42.3167 352.441 42.11C352.248 41.9033 352.151 41.6133 352.151 41.24C352.151 40.76 352.351 40.3767 352.751 40.09C353.151 39.7967 353.688 39.65 354.361 39.65C354.715 39.65 355.068 39.6933 355.421 39.78C355.775 39.8667 356.065 39.9833 356.291 40.13L355.881 40.89C355.448 40.61 354.938 40.47 354.351 40.47C353.945 40.47 353.635 40.5367 353.421 40.67C353.208 40.8033 353.101 40.98 353.101 41.2C353.101 41.3733 353.161 41.51 353.281 41.61C353.401 41.71 353.548 41.7833 353.721 41.83C353.901 41.8767 354.151 41.93 354.471 41.99C354.898 42.0633 355.241 42.1433 355.501 42.23C355.768 42.31 355.995 42.45 356.181 42.65C356.368 42.85 356.461 43.13 356.461 43.49C356.461 43.97 356.255 44.3533 355.841 44.64C355.435 44.92 354.878 45.06 354.171 45.06ZM366.437 45.03C365.783 45.03 365.187 44.8733 364.647 44.56C364.113 44.2467 363.69 43.82 363.377 43.28C363.07 42.74 362.917 42.1467 362.917 41.5C362.917 40.8533 363.07 40.26 363.377 39.72C363.69 39.18 364.117 38.7533 364.657 38.44C365.197 38.1267 365.797 37.97 366.457 37.97C367.117 37.97 367.713 38.1233 368.247 38.43C368.787 38.7367 369.21 39.16 369.517 39.7C369.823 40.2333 369.977 40.8267 369.977 41.48C369.977 42.1333 369.82 42.7333 369.507 43.28C369.193 43.82 368.767 44.2467 368.227 44.56C367.687 44.8733 367.09 45.03 366.437 45.03ZM366.437 44.58C367.01 44.58 367.53 44.4433 367.997 44.17C368.463 43.8967 368.83 43.5233 369.097 43.05C369.37 42.5767 369.507 42.0533 369.507 41.48C369.507 40.9067 369.373 40.3867 369.107 39.92C368.847 39.4533 368.483 39.0867 368.017 38.82C367.557 38.5533 367.037 38.42 366.457 38.42C365.883 38.42 365.36 38.5567 364.887 38.83C364.42 39.1033 364.053 39.4767 363.787 39.95C363.52 40.4167 363.387 40.9333 363.387 41.5C363.387 42.0667 363.52 42.5867 363.787 43.06C364.053 43.5267 364.42 43.8967 364.887 44.17C365.353 44.4433 365.87 44.58 366.437 44.58ZM366.547 43.56C366.14 43.56 365.777 43.4733 365.457 43.3C365.137 43.1267 364.887 42.8833 364.707 42.57C364.527 42.2567 364.437 41.9 364.437 41.5C364.437 41.1 364.527 40.7433 364.707 40.43C364.887 40.1167 365.137 39.8733 365.457 39.7C365.777 39.5267 366.14 39.44 366.547 39.44C366.893 39.44 367.21 39.5133 367.497 39.66C367.783 39.8067 368.007 40.0033 368.167 40.25L367.597 40.66C367.357 40.3 367.003 40.12 366.537 40.12C366.15 40.12 365.83 40.2467 365.577 40.5C365.323 40.7533 365.197 41.0867 365.197 41.5C365.197 41.9133 365.323 42.2467 365.577 42.5C365.83 42.7533 366.15 42.88 366.537 42.88C367.003 42.88 367.357 42.7 367.597 42.34L368.167 42.74C368.007 42.9933 367.783 43.1933 367.497 43.34C367.21 43.4867 366.893 43.56 366.547 43.56ZM382.31 45.11L381.38 44.18C380.76 44.78 379.98 45.08 379.04 45.08C378.573 45.08 378.153 45.0033 377.78 44.85C377.406 44.6967 377.113 44.4833 376.9 44.21C376.693 43.93 376.59 43.6133 376.59 43.26C376.59 42.8333 376.72 42.4567 376.98 42.13C377.246 41.7967 377.683 41.4567 378.29 41.11C377.983 40.8033 377.766 40.5267 377.64 40.28C377.513 40.0333 377.45 39.7767 377.45 39.51C377.45 39.0367 377.62 38.6567 377.96 38.37C378.306 38.0833 378.766 37.94 379.34 37.94C379.873 37.94 380.296 38.07 380.61 38.33C380.923 38.59 381.08 38.9467 381.08 39.4C381.08 39.7533 380.963 40.07 380.73 40.35C380.503 40.63 380.123 40.9233 379.59 41.23L381.32 42.95C381.52 42.57 381.663 42.1467 381.75 41.68L382.52 41.93C382.4 42.5433 382.196 43.0767 381.91 43.53L382.85 44.47L382.31 45.11ZM379.34 38.64C379.026 38.64 378.78 38.72 378.6 38.88C378.426 39.0333 378.34 39.2367 378.34 39.49C378.34 39.67 378.386 39.8433 378.48 40.01C378.58 40.1767 378.77 40.4033 379.05 40.69C379.51 40.43 379.826 40.2067 380 40.02C380.18 39.8333 380.27 39.63 380.27 39.41C380.27 39.1767 380.186 38.99 380.02 38.85C379.86 38.71 379.633 38.64 379.34 38.64ZM379.1 44.28C379.793 44.28 380.363 44.06 380.81 43.62L378.82 41.64C378.34 41.9067 378.003 42.1567 377.81 42.39C377.623 42.6167 377.53 42.8733 377.53 43.16C377.53 43.4933 377.673 43.7633 377.96 43.97C378.253 44.1767 378.633 44.28 379.1 44.28ZM388.721 38H392.461V38.59H390.951V42.15H390.231V38.59H388.721V38ZM397.231 42.15L397.221 39.24L395.661 41.66H395.331L393.761 39.29V42.15H393.071V38H393.661L395.511 40.84L397.321 38H397.911L397.921 42.15H397.231ZM405.709 38H408.659C409.399 38 410.056 38.1467 410.629 38.44C411.203 38.7333 411.646 39.1467 411.959 39.68C412.279 40.2067 412.439 40.8133 412.439 41.5C412.439 42.1867 412.279 42.7967 411.959 43.33C411.646 43.8567 411.203 44.2667 410.629 44.56C410.056 44.8533 409.399 45 408.659 45H405.709V38ZM408.599 44.13C409.166 44.13 409.663 44.02 410.089 43.8C410.523 43.58 410.856 43.2733 411.089 42.88C411.323 42.48 411.439 42.02 411.439 41.5C411.439 40.98 411.323 40.5233 411.089 40.13C410.856 39.73 410.523 39.42 410.089 39.2C409.663 38.98 409.166 38.87 408.599 38.87H406.709V44.13H408.599ZM418.601 45.08C417.901 45.08 417.268 44.9267 416.701 44.62C416.141 44.3067 415.701 43.88 415.381 43.34C415.061 42.7933 414.901 42.18 414.901 41.5C414.901 40.82 415.061 40.21 415.381 39.67C415.701 39.1233 416.144 38.6967 416.711 38.39C417.278 38.0767 417.911 37.92 418.611 37.92C419.158 37.92 419.658 38.0133 420.111 38.2C420.564 38.38 420.951 38.65 421.271 39.01L420.621 39.64C420.094 39.0867 419.438 38.81 418.651 38.81C418.131 38.81 417.661 38.9267 417.241 39.16C416.821 39.3933 416.491 39.7167 416.251 40.13C416.018 40.5367 415.901 40.9933 415.901 41.5C415.901 42.0067 416.018 42.4667 416.251 42.88C416.491 43.2867 416.821 43.6067 417.241 43.84C417.661 44.0733 418.131 44.19 418.651 44.19C419.431 44.19 420.088 43.91 420.621 43.35L421.271 43.98C420.951 44.34 420.561 44.6133 420.101 44.8C419.648 44.9867 419.148 45.08 418.601 45.08ZM431.513 45.08C430.813 45.08 430.18 44.9267 429.613 44.62C429.053 44.3067 428.613 43.88 428.293 43.34C427.973 42.7933 427.813 42.18 427.813 41.5C427.813 40.82 427.973 40.21 428.293 39.67C428.613 39.1233 429.056 38.6967 429.623 38.39C430.19 38.0767 430.823 37.92 431.523 37.92C432.07 37.92 432.57 38.0133 433.023 38.2C433.476 38.38 433.863 38.65 434.183 39.01L433.533 39.64C433.006 39.0867 432.35 38.81 431.563 38.81C431.043 38.81 430.573 38.9267 430.153 39.16C429.733 39.3933 429.403 39.7167 429.163 40.13C428.93 40.5367 428.813 40.9933 428.813 41.5C428.813 42.0067 428.93 42.4667 429.163 42.88C429.403 43.2867 429.733 43.6067 430.153 43.84C430.573 44.0733 431.043 44.19 431.563 44.19C432.343 44.19 433 43.91 433.533 43.35L434.183 43.98C433.863 44.34 433.473 44.6133 433.013 44.8C432.56 44.9867 432.06 45.08 431.513 45.08ZM439.015 45.06C438.488 45.06 438.015 44.9433 437.595 44.71C437.175 44.4767 436.845 44.1567 436.605 43.75C436.372 43.3367 436.255 42.87 436.255 42.35C436.255 41.83 436.372 41.3667 436.605 40.96C436.845 40.5467 437.175 40.2267 437.595 40C438.015 39.7667 438.488 39.65 439.015 39.65C439.542 39.65 440.012 39.7667 440.425 40C440.845 40.2267 441.172 40.5467 441.405 40.96C441.645 41.3667 441.765 41.83 441.765 42.35C441.765 42.87 441.645 43.3367 441.405 43.75C441.172 44.1567 440.845 44.4767 440.425 44.71C440.012 44.9433 439.542 45.06 439.015 45.06ZM439.015 44.22C439.355 44.22 439.658 44.1433 439.925 43.99C440.198 43.83 440.412 43.61 440.565 43.33C440.718 43.0433 440.795 42.7167 440.795 42.35C440.795 41.9833 440.718 41.66 440.565 41.38C440.412 41.0933 440.198 40.8733 439.925 40.72C439.658 40.5667 439.355 40.49 439.015 40.49C438.675 40.49 438.368 40.5667 438.095 40.72C437.828 40.8733 437.615 41.0933 437.455 41.38C437.302 41.66 437.225 41.9833 437.225 42.35C437.225 42.7167 437.302 43.0433 437.455 43.33C437.615 43.61 437.828 43.83 438.095 43.99C438.368 44.1433 438.675 44.22 439.015 44.22ZM451.223 39.65C451.889 39.65 452.416 39.8433 452.803 40.23C453.196 40.6167 453.393 41.19 453.393 41.95V45H452.433V42.06C452.433 41.5467 452.313 41.16 452.073 40.9C451.839 40.64 451.503 40.51 451.063 40.51C450.576 40.51 450.189 40.6633 449.903 40.97C449.616 41.27 449.473 41.7033 449.473 42.27V45H448.513V42.06C448.513 41.5467 448.393 41.16 448.153 40.9C447.919 40.64 447.583 40.51 447.143 40.51C446.656 40.51 446.269 40.6633 445.983 40.97C445.696 41.27 445.553 41.7033 445.553 42.27V45H444.593V39.7H445.513V40.49C445.706 40.2167 445.959 40.01 446.273 39.87C446.586 39.7233 446.943 39.65 447.343 39.65C447.756 39.65 448.123 39.7333 448.443 39.9C448.763 40.0667 449.009 40.31 449.183 40.63C449.383 40.3233 449.659 40.0833 450.013 39.91C450.373 39.7367 450.776 39.65 451.223 39.65ZM456.659 39.7H457.619V45H456.659V39.7ZM457.139 38.68C456.952 38.68 456.796 38.62 456.669 38.5C456.549 38.38 456.489 38.2333 456.489 38.06C456.489 37.8867 456.549 37.74 456.669 37.62C456.796 37.4933 456.952 37.43 457.139 37.43C457.326 37.43 457.479 37.49 457.599 37.61C457.726 37.7233 457.789 37.8667 457.789 38.04C457.789 38.22 457.726 38.3733 457.599 38.5C457.479 38.62 457.326 38.68 457.139 38.68ZM463.262 45.06C462.722 45.06 462.239 44.9433 461.812 44.71C461.392 44.4767 461.062 44.1567 460.822 43.75C460.582 43.3367 460.462 42.87 460.462 42.35C460.462 41.83 460.582 41.3667 460.822 40.96C461.062 40.5467 461.392 40.2267 461.812 40C462.239 39.7667 462.722 39.65 463.262 39.65C463.742 39.65 464.169 39.7467 464.542 39.94C464.922 40.1333 465.215 40.4133 465.422 40.78L464.692 41.25C464.525 40.9967 464.319 40.8067 464.072 40.68C463.825 40.5533 463.552 40.49 463.252 40.49C462.905 40.49 462.592 40.5667 462.312 40.72C462.039 40.8733 461.822 41.0933 461.662 41.38C461.509 41.66 461.432 41.9833 461.432 42.35C461.432 42.7233 461.509 43.0533 461.662 43.34C461.822 43.62 462.039 43.8367 462.312 43.99C462.592 44.1433 462.905 44.22 463.252 44.22C463.552 44.22 463.825 44.1567 464.072 44.03C464.319 43.9033 464.525 43.7133 464.692 43.46L465.422 43.92C465.215 44.2867 464.922 44.57 464.542 44.77C464.169 44.9633 463.742 45.06 463.262 45.06ZM469.685 45.06C469.252 45.06 468.835 45.0033 468.435 44.89C468.035 44.77 467.722 44.62 467.495 44.44L467.895 43.68C468.128 43.8467 468.412 43.98 468.745 44.08C469.078 44.18 469.415 44.23 469.755 44.23C470.595 44.23 471.015 43.99 471.015 43.51C471.015 43.35 470.958 43.2233 470.845 43.13C470.732 43.0367 470.588 42.97 470.415 42.93C470.248 42.8833 470.008 42.8333 469.695 42.78C469.268 42.7133 468.918 42.6367 468.645 42.55C468.378 42.4633 468.148 42.3167 467.955 42.11C467.762 41.9033 467.665 41.6133 467.665 41.24C467.665 40.76 467.865 40.3767 468.265 40.09C468.665 39.7967 469.202 39.65 469.875 39.65C470.228 39.65 470.582 39.6933 470.935 39.78C471.288 39.8667 471.578 39.9833 471.805 40.13L471.395 40.89C470.962 40.61 470.452 40.47 469.865 40.47C469.458 40.47 469.148 40.5367 468.935 40.67C468.722 40.8033 468.615 40.98 468.615 41.2C468.615 41.3733 468.675 41.51 468.795 41.61C468.915 41.71 469.062 41.7833 469.235 41.83C469.415 41.8767 469.665 41.93 469.985 41.99C470.412 42.0633 470.755 42.1433 471.015 42.23C471.282 42.31 471.508 42.45 471.695 42.65C471.882 42.85 471.975 43.13 471.975 43.49C471.975 43.97 471.768 44.3533 471.355 44.64C470.948 44.92 470.392 45.06 469.685 45.06ZM474.905 45.06C474.718 45.06 474.558 44.9967 474.425 44.87C474.291 44.7367 474.225 44.57 474.225 44.37C474.225 44.1767 474.291 44.0167 474.425 43.89C474.558 43.7567 474.718 43.69 474.905 43.69C475.091 43.69 475.248 43.7533 475.375 43.88C475.501 44.0067 475.565 44.17 475.565 44.37C475.565 44.57 475.498 44.7367 475.365 44.87C475.238 44.9967 475.085 45.06 474.905 45.06ZM485.716 45.03C485.062 45.03 484.466 44.8733 483.926 44.56C483.392 44.2467 482.969 43.82 482.656 43.28C482.349 42.74 482.196 42.1467 482.196 41.5C482.196 40.8533 482.349 40.26 482.656 39.72C482.969 39.18 483.396 38.7533 483.936 38.44C484.476 38.1267 485.076 37.97 485.736 37.97C486.396 37.97 486.992 38.1233 487.526 38.43C488.066 38.7367 488.489 39.16 488.796 39.7C489.102 40.2333 489.256 40.8267 489.256 41.48C489.256 42.1333 489.099 42.7333 488.786 43.28C488.472 43.82 488.046 44.2467 487.506 44.56C486.966 44.8733 486.369 45.03 485.716 45.03ZM485.716 44.58C486.289 44.58 486.809 44.4433 487.276 44.17C487.742 43.8967 488.109 43.5233 488.376 43.05C488.649 42.5767 488.786 42.0533 488.786 41.48C488.786 40.9067 488.652 40.3867 488.386 39.92C488.126 39.4533 487.762 39.0867 487.296 38.82C486.836 38.5533 486.316 38.42 485.736 38.42C485.162 38.42 484.639 38.5567 484.166 38.83C483.699 39.1033 483.332 39.4767 483.066 39.95C482.799 40.4167 482.666 40.9333 482.666 41.5C482.666 42.0667 482.799 42.5867 483.066 43.06C483.332 43.5267 483.699 43.8967 484.166 44.17C484.632 44.4433 485.149 44.58 485.716 44.58ZM485.826 43.56C485.419 43.56 485.056 43.4733 484.736 43.3C484.416 43.1267 484.166 42.8833 483.986 42.57C483.806 42.2567 483.716 41.9 483.716 41.5C483.716 41.1 483.806 40.7433 483.986 40.43C484.166 40.1167 484.416 39.8733 484.736 39.7C485.056 39.5267 485.419 39.44 485.826 39.44C486.172 39.44 486.489 39.5133 486.776 39.66C487.062 39.8067 487.286 40.0033 487.446 40.25L486.876 40.66C486.636 40.3 486.282 40.12 485.816 40.12C485.429 40.12 485.109 40.2467 484.856 40.5C484.602 40.7533 484.476 41.0867 484.476 41.5C484.476 41.9133 484.602 42.2467 484.856 42.5C485.109 42.7533 485.429 42.88 485.816 42.88C486.282 42.88 486.636 42.7 486.876 42.34L487.446 42.74C487.286 42.9933 487.062 43.1933 486.776 43.34C486.489 43.4867 486.172 43.56 485.826 43.56ZM506.359 38L504.019 45H502.969L501.059 39.41L499.149 45H498.079L495.739 38H496.769L498.659 43.69L500.629 38H501.549L503.479 43.72L505.409 38H506.359ZM510.472 39.65C511.205 39.65 511.765 39.83 512.152 40.19C512.545 40.55 512.742 41.0867 512.742 41.8V45H511.832V44.3C511.672 44.5467 511.442 44.7367 511.142 44.87C510.849 44.9967 510.499 45.06 510.092 45.06C509.499 45.06 509.022 44.9167 508.662 44.63C508.309 44.3433 508.132 43.9667 508.132 43.5C508.132 43.0333 508.302 42.66 508.642 42.38C508.982 42.0933 509.522 41.95 510.262 41.95H511.782V41.76C511.782 41.3467 511.662 41.03 511.422 40.81C511.182 40.59 510.829 40.48 510.362 40.48C510.049 40.48 509.742 40.5333 509.442 40.64C509.142 40.74 508.889 40.8767 508.682 41.05L508.282 40.33C508.555 40.11 508.882 39.9433 509.262 39.83C509.642 39.71 510.045 39.65 510.472 39.65ZM510.252 44.32C510.619 44.32 510.935 44.24 511.202 44.08C511.469 43.9133 511.662 43.68 511.782 43.38V42.64H510.302C509.489 42.64 509.082 42.9133 509.082 43.46C509.082 43.7267 509.185 43.9367 509.392 44.09C509.599 44.2433 509.885 44.32 510.252 44.32ZM516.938 40.59C517.105 40.2833 517.352 40.05 517.678 39.89C518.005 39.73 518.402 39.65 518.868 39.65V40.58C518.815 40.5733 518.742 40.57 518.648 40.57C518.128 40.57 517.718 40.7267 517.418 41.04C517.125 41.3467 516.978 41.7867 516.978 42.36V45H516.018V39.7H516.938V40.59ZM524.382 39.65C525.055 39.65 525.588 39.8467 525.982 40.24C526.382 40.6267 526.582 41.1967 526.582 41.95V45H525.622V42.06C525.622 41.5467 525.498 41.16 525.252 40.9C525.005 40.64 524.652 40.51 524.192 40.51C523.672 40.51 523.262 40.6633 522.962 40.97C522.662 41.27 522.512 41.7033 522.512 42.27V45H521.552V39.7H522.472V40.5C522.665 40.2267 522.925 40.0167 523.252 39.87C523.585 39.7233 523.962 39.65 524.382 39.65ZM534.678 42.38C534.678 42.4533 534.671 42.55 534.658 42.67H530.358C530.418 43.1367 530.621 43.5133 530.968 43.8C531.321 44.08 531.758 44.22 532.278 44.22C532.911 44.22 533.421 44.0067 533.808 43.58L534.338 44.2C534.098 44.48 533.798 44.6933 533.438 44.84C533.084 44.9867 532.688 45.06 532.248 45.06C531.688 45.06 531.191 44.9467 530.758 44.72C530.324 44.4867 529.988 44.1633 529.748 43.75C529.514 43.3367 529.398 42.87 529.398 42.35C529.398 41.8367 529.511 41.3733 529.738 40.96C529.971 40.5467 530.288 40.2267 530.688 40C531.094 39.7667 531.551 39.65 532.058 39.65C532.564 39.65 533.014 39.7667 533.408 40C533.808 40.2267 534.118 40.5467 534.338 40.96C534.564 41.3733 534.678 41.8467 534.678 42.38ZM532.058 40.46C531.598 40.46 531.211 40.6 530.898 40.88C530.591 41.16 530.411 41.5267 530.358 41.98H533.758C533.704 41.5333 533.521 41.17 533.208 40.89C532.901 40.6033 532.518 40.46 532.058 40.46ZM538.431 40.59C538.597 40.2833 538.844 40.05 539.171 39.89C539.497 39.73 539.894 39.65 540.361 39.65V40.58C540.307 40.5733 540.234 40.57 540.141 40.57C539.621 40.57 539.211 40.7267 538.911 41.04C538.617 41.3467 538.471 41.7867 538.471 42.36V45H537.511V39.7H538.431V40.59ZM552.148 41.37C552.554 41.4833 552.874 41.69 553.108 41.99C553.341 42.2833 553.458 42.6567 553.458 43.11C553.458 43.7167 553.228 44.1833 552.768 44.51C552.314 44.8367 551.651 45 550.778 45H547.438V38H550.578C551.378 38 551.994 38.16 552.428 38.48C552.868 38.8 553.088 39.2433 553.088 39.81C553.088 40.1767 553.001 40.4933 552.828 40.76C552.661 41.0267 552.434 41.23 552.148 41.37ZM548.438 38.81V41.05H550.488C551.001 41.05 551.394 40.9567 551.668 40.77C551.948 40.5767 552.088 40.2967 552.088 39.93C552.088 39.5633 551.948 39.2867 551.668 39.1C551.394 38.9067 551.001 38.81 550.488 38.81H548.438ZM550.738 44.19C551.304 44.19 551.731 44.0967 552.018 43.91C552.304 43.7233 552.448 43.43 552.448 43.03C552.448 42.25 551.878 41.86 550.738 41.86H548.438V44.19H550.738ZM557.286 40.59C557.453 40.2833 557.699 40.05 558.026 39.89C558.353 39.73 558.749 39.65 559.216 39.65V40.58C559.163 40.5733 559.089 40.57 558.996 40.57C558.476 40.57 558.066 40.7267 557.766 41.04C557.473 41.3467 557.326 41.7867 557.326 42.36V45H556.366V39.7H557.286V40.59ZM564.12 45.06C563.594 45.06 563.12 44.9433 562.7 44.71C562.28 44.4767 561.95 44.1567 561.71 43.75C561.477 43.3367 561.36 42.87 561.36 42.35C561.36 41.83 561.477 41.3667 561.71 40.96C561.95 40.5467 562.28 40.2267 562.7 40C563.12 39.7667 563.594 39.65 564.12 39.65C564.647 39.65 565.117 39.7667 565.53 40C565.95 40.2267 566.277 40.5467 566.51 40.96C566.75 41.3667 566.87 41.83 566.87 42.35C566.87 42.87 566.75 43.3367 566.51 43.75C566.277 44.1567 565.95 44.4767 565.53 44.71C565.117 44.9433 564.647 45.06 564.12 45.06ZM564.12 44.22C564.46 44.22 564.764 44.1433 565.03 43.99C565.304 43.83 565.517 43.61 565.67 43.33C565.824 43.0433 565.9 42.7167 565.9 42.35C565.9 41.9833 565.824 41.66 565.67 41.38C565.517 41.0933 565.304 40.8733 565.03 40.72C564.764 40.5667 564.46 40.49 564.12 40.49C563.78 40.49 563.474 40.5667 563.2 40.72C562.934 40.8733 562.72 41.0933 562.56 41.38C562.407 41.66 562.33 41.9833 562.33 42.35C562.33 42.7167 562.407 43.0433 562.56 43.33C562.72 43.61 562.934 43.83 563.2 43.99C563.474 44.1433 563.78 44.22 564.12 44.22ZM571.218 45.06C570.785 45.06 570.368 45.0033 569.968 44.89C569.568 44.77 569.255 44.62 569.028 44.44L569.428 43.68C569.661 43.8467 569.945 43.98 570.278 44.08C570.611 44.18 570.948 44.23 571.288 44.23C572.128 44.23 572.548 43.99 572.548 43.51C572.548 43.35 572.491 43.2233 572.378 43.13C572.265 43.0367 572.121 42.97 571.948 42.93C571.781 42.8833 571.541 42.8333 571.228 42.78C570.801 42.7133 570.451 42.6367 570.178 42.55C569.911 42.4633 569.681 42.3167 569.488 42.11C569.295 41.9033 569.198 41.6133 569.198 41.24C569.198 40.76 569.398 40.3767 569.798 40.09C570.198 39.7967 570.735 39.65 571.408 39.65C571.761 39.65 572.115 39.6933 572.468 39.78C572.821 39.8667 573.111 39.9833 573.338 40.13L572.928 40.89C572.495 40.61 571.985 40.47 571.398 40.47C570.991 40.47 570.681 40.5367 570.468 40.67C570.255 40.8033 570.148 40.98 570.148 41.2C570.148 41.3733 570.208 41.51 570.328 41.61C570.448 41.71 570.595 41.7833 570.768 41.83C570.948 41.8767 571.198 41.93 571.518 41.99C571.945 42.0633 572.288 42.1433 572.548 42.23C572.815 42.31 573.041 42.45 573.228 42.65C573.415 42.85 573.508 43.13 573.508 43.49C573.508 43.97 573.301 44.3533 572.888 44.64C572.481 44.92 571.925 45.06 571.218 45.06ZM576.438 45.06C576.251 45.06 576.091 44.9967 575.958 44.87C575.825 44.7367 575.758 44.57 575.758 44.37C575.758 44.1767 575.825 44.0167 575.958 43.89C576.091 43.7567 576.251 43.69 576.438 43.69C576.625 43.69 576.781 43.7533 576.908 43.88C577.035 44.0067 577.098 44.17 577.098 44.37C577.098 44.57 577.031 44.7367 576.898 44.87C576.771 44.9967 576.618 45.06 576.438 45.06ZM589.379 44.13V45H584.299V38H589.239V38.87H585.299V41.02H588.809V41.87H585.299V44.13H589.379ZM595.188 39.65C595.862 39.65 596.395 39.8467 596.788 40.24C597.188 40.6267 597.388 41.1967 597.388 41.95V45H596.428V42.06C596.428 41.5467 596.305 41.16 596.058 40.9C595.812 40.64 595.458 40.51 594.998 40.51C594.478 40.51 594.068 40.6633 593.768 40.97C593.468 41.27 593.318 41.7033 593.318 42.27V45H592.358V39.7H593.278V40.5C593.472 40.2267 593.732 40.0167 594.058 39.87C594.392 39.7233 594.768 39.65 595.188 39.65ZM603.645 44.69C603.505 44.81 603.332 44.9033 603.125 44.97C602.918 45.03 602.705 45.06 602.485 45.06C601.952 45.06 601.538 44.9167 601.245 44.63C600.952 44.3433 600.805 43.9333 600.805 43.4V40.49H599.905V39.7H600.805V38.54H601.765V39.7H603.285V40.49H601.765V43.36C601.765 43.6467 601.835 43.8667 601.975 44.02C602.122 44.1733 602.328 44.25 602.595 44.25C602.888 44.25 603.138 44.1667 603.345 44L603.645 44.69ZM610.92 42.38C610.92 42.4533 610.913 42.55 610.9 42.67H606.6C606.66 43.1367 606.863 43.5133 607.21 43.8C607.563 44.08 608 44.22 608.52 44.22C609.153 44.22 609.663 44.0067 610.05 43.58L610.58 44.2C610.34 44.48 610.04 44.6933 609.68 44.84C609.326 44.9867 608.93 45.06 608.49 45.06C607.93 45.06 607.433 44.9467 607 44.72C606.566 44.4867 606.23 44.1633 605.99 43.75C605.756 43.3367 605.64 42.87 605.64 42.35C605.64 41.8367 605.753 41.3733 605.98 40.96C606.213 40.5467 606.53 40.2267 606.93 40C607.336 39.7667 607.793 39.65 608.3 39.65C608.806 39.65 609.256 39.7667 609.65 40C610.05 40.2267 610.36 40.5467 610.58 40.96C610.806 41.3733 610.92 41.8467 610.92 42.38ZM608.3 40.46C607.84 40.46 607.453 40.6 607.14 40.88C606.833 41.16 606.653 41.5267 606.6 41.98H610C609.946 41.5333 609.763 41.17 609.45 40.89C609.143 40.6033 608.76 40.46 608.3 40.46ZM614.673 40.59C614.839 40.2833 615.086 40.05 615.413 39.89C615.739 39.73 616.136 39.65 616.603 39.65V40.58C616.549 40.5733 616.476 40.57 616.383 40.57C615.863 40.57 615.453 40.7267 615.153 41.04C614.859 41.3467 614.713 41.7867 614.713 42.36V45H613.753V39.7H614.673V40.59ZM622.481 44.69C622.341 44.81 622.167 44.9033 621.961 44.97C621.754 45.03 621.541 45.06 621.321 45.06C620.787 45.06 620.374 44.9167 620.081 44.63C619.787 44.3433 619.641 43.9333 619.641 43.4V40.49H618.741V39.7H619.641V38.54H620.601V39.7H622.121V40.49H620.601V43.36C620.601 43.6467 620.671 43.8667 620.811 44.02C620.957 44.1733 621.164 44.25 621.431 44.25C621.724 44.25 621.974 44.1667 622.181 44L622.481 44.69ZM627.071 39.65C627.805 39.65 628.365 39.83 628.751 40.19C629.145 40.55 629.341 41.0867 629.341 41.8V45H628.431V44.3C628.271 44.5467 628.041 44.7367 627.741 44.87C627.448 44.9967 627.098 45.06 626.691 45.06C626.098 45.06 625.621 44.9167 625.261 44.63C624.908 44.3433 624.731 43.9667 624.731 43.5C624.731 43.0333 624.901 42.66 625.241 42.38C625.581 42.0933 626.121 41.95 626.861 41.95H628.381V41.76C628.381 41.3467 628.261 41.03 628.021 40.81C627.781 40.59 627.428 40.48 626.961 40.48C626.648 40.48 626.341 40.5333 626.041 40.64C625.741 40.74 625.488 40.8767 625.281 41.05L624.881 40.33C625.155 40.11 625.481 39.9433 625.861 39.83C626.241 39.71 626.645 39.65 627.071 39.65ZM626.851 44.32C627.218 44.32 627.535 44.24 627.801 44.08C628.068 43.9133 628.261 43.68 628.381 43.38V42.64H626.901C626.088 42.64 625.681 42.9133 625.681 43.46C625.681 43.7267 625.785 43.9367 625.991 44.09C626.198 44.2433 626.485 44.32 626.851 44.32ZM632.618 39.7H633.578V45H632.618V39.7ZM633.098 38.68C632.911 38.68 632.755 38.62 632.628 38.5C632.508 38.38 632.448 38.2333 632.448 38.06C632.448 37.8867 632.508 37.74 632.628 37.62C632.755 37.4933 632.911 37.43 633.098 37.43C633.285 37.43 633.438 37.49 633.558 37.61C633.685 37.7233 633.748 37.8667 633.748 38.04C633.748 38.22 633.685 38.3733 633.558 38.5C633.438 38.62 633.285 38.68 633.098 38.68ZM639.741 39.65C640.414 39.65 640.948 39.8467 641.341 40.24C641.741 40.6267 641.941 41.1967 641.941 41.95V45H640.981V42.06C640.981 41.5467 640.858 41.16 640.611 40.9C640.364 40.64 640.011 40.51 639.551 40.51C639.031 40.51 638.621 40.6633 638.321 40.97C638.021 41.27 637.871 41.7033 637.871 42.27V45H636.911V39.7H637.831V40.5C638.024 40.2267 638.284 40.0167 638.611 39.87C638.944 39.7233 639.321 39.65 639.741 39.65ZM651.848 39.65C652.514 39.65 653.041 39.8433 653.428 40.23C653.821 40.6167 654.018 41.19 654.018 41.95V45H653.058V42.06C653.058 41.5467 652.938 41.16 652.698 40.9C652.464 40.64 652.128 40.51 651.688 40.51C651.201 40.51 650.814 40.6633 650.528 40.97C650.241 41.27 650.098 41.7033 650.098 42.27V45H649.138V42.06C649.138 41.5467 649.018 41.16 648.778 40.9C648.544 40.64 648.208 40.51 647.768 40.51C647.281 40.51 646.894 40.6633 646.608 40.97C646.321 41.27 646.178 41.7033 646.178 42.27V45H645.218V39.7H646.138V40.49C646.331 40.2167 646.584 40.01 646.898 39.87C647.211 39.7233 647.568 39.65 647.968 39.65C648.381 39.65 648.748 39.7333 649.068 39.9C649.388 40.0667 649.634 40.31 649.808 40.63C650.008 40.3233 650.284 40.0833 650.638 39.91C650.998 39.7367 651.401 39.65 651.848 39.65ZM662.103 42.38C662.103 42.4533 662.097 42.55 662.083 42.67H657.783C657.843 43.1367 658.047 43.5133 658.393 43.8C658.747 44.08 659.183 44.22 659.703 44.22C660.337 44.22 660.847 44.0067 661.233 43.58L661.763 44.2C661.523 44.48 661.223 44.6933 660.863 44.84C660.51 44.9867 660.113 45.06 659.673 45.06C659.113 45.06 658.617 44.9467 658.183 44.72C657.75 44.4867 657.413 44.1633 657.173 43.75C656.94 43.3367 656.823 42.87 656.823 42.35C656.823 41.8367 656.937 41.3733 657.163 40.96C657.397 40.5467 657.713 40.2267 658.113 40C658.52 39.7667 658.977 39.65 659.483 39.65C659.99 39.65 660.44 39.7667 660.833 40C661.233 40.2267 661.543 40.5467 661.763 40.96C661.99 41.3733 662.103 41.8467 662.103 42.38ZM659.483 40.46C659.023 40.46 658.637 40.6 658.323 40.88C658.017 41.16 657.837 41.5267 657.783 41.98H661.183C661.13 41.5333 660.947 41.17 660.633 40.89C660.327 40.6033 659.943 40.46 659.483 40.46ZM667.766 39.65C668.44 39.65 668.973 39.8467 669.366 40.24C669.766 40.6267 669.966 41.1967 669.966 41.95V45H669.006V42.06C669.006 41.5467 668.883 41.16 668.636 40.9C668.39 40.64 668.036 40.51 667.576 40.51C667.056 40.51 666.646 40.6633 666.346 40.97C666.046 41.27 665.896 41.7033 665.896 42.27V45H664.936V39.7H665.856V40.5C666.05 40.2267 666.31 40.0167 666.636 39.87C666.97 39.7233 667.346 39.65 667.766 39.65ZM676.223 44.69C676.083 44.81 675.91 44.9033 675.703 44.97C675.496 45.03 675.283 45.06 675.063 45.06C674.53 45.06 674.116 44.9167 673.823 44.63C673.53 44.3433 673.383 43.9333 673.383 43.4V40.49H672.483V39.7H673.383V38.54H674.343V39.7H675.863V40.49H674.343V43.36C674.343 43.6467 674.413 43.8667 674.553 44.02C674.7 44.1733 674.906 44.25 675.173 44.25C675.466 44.25 675.716 44.1667 675.923 44L676.223 44.69ZM683.209 38H684.209V45H683.209V38ZM690.495 39.65C691.168 39.65 691.702 39.8467 692.095 40.24C692.495 40.6267 692.695 41.1967 692.695 41.95V45H691.735V42.06C691.735 41.5467 691.612 41.16 691.365 40.9C691.118 40.64 690.765 40.51 690.305 40.51C689.785 40.51 689.375 40.6633 689.075 40.97C688.775 41.27 688.625 41.7033 688.625 42.27V45H687.665V39.7H688.585V40.5C688.778 40.2267 689.038 40.0167 689.365 39.87C689.698 39.7233 690.075 39.65 690.495 39.65ZM698.311 45.06C697.771 45.06 697.287 44.9433 696.861 44.71C696.441 44.4767 696.111 44.1567 695.871 43.75C695.631 43.3367 695.511 42.87 695.511 42.35C695.511 41.83 695.631 41.3667 695.871 40.96C696.111 40.5467 696.441 40.2267 696.861 40C697.287 39.7667 697.771 39.65 698.311 39.65C698.791 39.65 699.217 39.7467 699.591 39.94C699.971 40.1333 700.264 40.4133 700.471 40.78L699.741 41.25C699.574 40.9967 699.367 40.8067 699.121 40.68C698.874 40.5533 698.601 40.49 698.301 40.49C697.954 40.49 697.641 40.5667 697.361 40.72C697.087 40.8733 696.871 41.0933 696.711 41.38C696.557 41.66 696.481 41.9833 696.481 42.35C696.481 42.7233 696.557 43.0533 696.711 43.34C696.871 43.62 697.087 43.8367 697.361 43.99C697.641 44.1433 697.954 44.22 698.301 44.22C698.601 44.22 698.874 44.1567 699.121 44.03C699.367 43.9033 699.574 43.7133 699.741 43.46L700.471 43.92C700.264 44.2867 699.971 44.57 699.591 44.77C699.217 44.9633 698.791 45.06 698.311 45.06ZM703.639 45.06C703.452 45.06 703.292 44.9967 703.159 44.87C703.026 44.7367 702.959 44.57 702.959 44.37C702.959 44.1767 703.026 44.0167 703.159 43.89C703.292 43.7567 703.452 43.69 703.639 43.69C703.826 43.69 703.982 43.7533 704.109 43.88C704.236 44.0067 704.299 44.17 704.299 44.37C704.299 44.57 704.232 44.7367 704.099 44.87C703.972 44.9967 703.819 45.06 703.639 45.06Z" fill="#707070"/>
<defs>
<radialGradient id="paint0_radial" cx="0" cy="0" r="1" gradientUnits="userSpaceOnUse" gradientTransform="translate(378 29.017) rotate(179.999) scale(378 285768)">
<stop stop-color="#707070"/>
<stop offset="1" stop-color="#707070" stop-opacity="0"/>
</radialGradient>
<clipPath id="clip0">
<rect width="19.162" height="20" fill="white" transform="translate(386)"/>
</clipPath>
</defs>
</svg>
