<svg width="1054" height="1176" viewBox="0 0 1054 1176" fill="none" xmlns="http://www.w3.org/2000/svg">
<path d="M5 10C1173.5 124.001 1144 229.5 939.5 333.5C742.602 433.634 -60.5 524.331 147.5 644.5C355.5 764.669 929.315 727.168 923 845.5C913.5 1023.5 527 999.5 527 1175" stroke="#707070" stroke-opacity="0.5" stroke-linecap="round" stroke-linejoin="round"/>
<path d="M5 4.5C1173.5 118.501 1144 224 939.5 328C742.602 428.134 -60.5 518.831 147.5 639C355.5 759.169 929.315 721.668 923 840C913.5 1018 527 994 527 1169.5" stroke="#BE4A4E" stroke-linecap="round" stroke-linejoin="round"/>
<rect x="1044" y="227" width="10" height="10" rx="5" fill="#BE4A4E"/>
<rect x="109" y="595" width="10" height="10" rx="5" fill="#BE4A4E"/>
<rect width="10" height="10" rx="5" fill="#BE4A4E"/>
<rect x="919" y="834" width="10" height="10" rx="5" fill="#BE4A4E"/>
<rect x="522" y="1165" width="10" height="10" rx="5" fill="#BE4A4E"/>
</svg>
