<svg width="20" height="21" viewBox="0 0 20 21" fill="none" xmlns="http://www.w3.org/2000/svg">
<g clip-path="url(#clip0)">
<path d="M2.568 0.500671H17.4332C18.8455 0.500671 20 1.6556 20 3.06787V17.9331C20 19.3449 18.8455 20.4991 17.4332 20.4991H2.568C1.15573 20.4991 0 19.3449 0 17.9331V3.06787C0 1.6556 1.15573 0.500671 2.568 0.500671ZM14.5697 2.72181C14.0739 2.72181 13.6694 3.12787 13.6694 3.62347V5.77774C13.6694 6.27354 14.0739 6.67867 14.5697 6.67867H16.8299C17.325 6.67867 17.7303 6.27354 17.7303 5.77774V3.62347C17.7303 3.12787 17.325 2.72181 16.8299 2.72181H14.5697ZM17.7389 8.95774H15.9792C16.1461 9.50274 16.2365 10.0775 16.2365 10.675C16.2365 14.0005 13.4521 16.6977 10.0188 16.6977C6.58633 16.6977 3.80187 14.0005 3.80187 10.675C3.80187 10.0775 3.8932 9.50274 4.05927 8.95774H2.22333V17.4065C2.22333 17.8441 2.5806 18.2 3.01773 18.2H16.9449C17.3824 18.2 17.7389 17.8441 17.7389 17.4065V8.95774ZM10.0189 6.56507C7.80153 6.56507 6.00287 8.30694 6.00287 10.4576C6.00287 12.6061 7.80153 14.3493 10.0189 14.3493C12.2374 14.3493 14.0361 12.6061 14.0361 10.4576C14.0361 8.30687 12.2374 6.56507 10.0189 6.56507Z" fill="#707070"/>
</g>
<defs>
<clipPath id="clip0">
<rect width="20" height="20" fill="white" transform="translate(0 0.5)"/>
</clipPath>
</defs>
</svg>
