<svg width="1878" height="332" viewBox="0 0 1878 332" fill="none" xmlns="http://www.w3.org/2000/svg">
<path d="M609.241 309.112C636.054 294.952 657.006 275.36 672.079 250.341C687.455 225.315 695.138 197.128 695.138 165.8C695.138 134.472 687.455 106.285 672.078 81.2592C657.006 56.2403 636.055 36.6488 609.242 22.4884C582.721 8.32407 552.747 1.25 519.338 1.25C485.929 1.25 455.807 8.3241 428.988 22.4868L428.985 22.4884C402.471 36.6496 381.521 56.2411 366.149 81.2574L366.146 81.263C351.07 106.288 343.538 134.474 343.538 165.8C343.538 197.126 351.07 225.312 366.146 250.337L366.149 250.343C381.521 275.359 402.471 294.95 428.985 309.112L428.988 309.113C455.807 323.276 485.929 330.35 519.338 330.35C552.747 330.35 582.721 323.276 609.241 309.112ZM609.241 309.112C609.241 309.112 609.241 309.112 609.242 309.112L608.888 308.45L609.239 309.113C609.239 309.113 609.24 309.112 609.241 309.112ZM48.0545 318.589L48.0639 318.593C67.0657 326.435 88.1645 330.35 111.35 330.35C151.371 330.35 181.742 320.118 202.33 299.531C223.22 278.941 233.6 248.116 233.6 207.2V8.3V7.55H232.85H35.75H35V8.3V77.15V77.9H35.75H143.9V212.6C143.9 227.496 140.473 238.69 133.738 246.303L133.733 246.309L133.727 246.316C127.306 253.905 117.792 257.75 105.05 257.75C85.8694 257.75 67.9154 246.99 51.1951 225.194L50.6278 224.454L50.0268 225.166L1.42678 282.766L1.02939 283.237L1.41435 283.719C13.4968 298.822 29.0493 310.444 48.0545 318.589ZM592.479 119.358L592.483 119.364C599.912 132.737 603.638 148.209 603.638 165.8C603.638 183.39 599.913 199.014 592.48 212.69C585.044 226.074 574.939 236.473 562.161 243.902C549.383 251.331 535.115 255.05 519.338 255.05C503.562 255.05 489.293 251.331 476.515 243.902C463.738 236.473 453.633 226.074 446.196 212.69C438.764 199.014 435.038 183.39 435.038 165.8C435.038 148.209 438.764 132.737 446.194 119.364L446.197 119.358C453.635 105.672 463.74 95.1256 476.515 87.6984C489.293 80.2693 503.562 76.55 519.338 76.55C535.115 76.55 549.383 80.2693 562.161 87.6984C574.936 95.1256 585.041 105.672 592.479 119.358ZM897.505 137.344V8.3V7.55H896.755H808.555H807.805V8.3V323.3V324.05H808.555H896.755H897.505V323.3V244.846L930.005 210.15L1019.47 323.764L1019.69 324.05H1020.05H1123.55H1125.08L1124.15 322.842L989.085 147.843L1117.36 8.80856L1118.52 7.55H1116.8H1018.7H1018.38L1018.16 7.78887L897.505 137.344ZM1468.08 254.45V253.7H1467.33H1303.38V197.6H1442.58H1443.33V196.85V130.25V129.5H1442.58H1303.38V77.9H1461.48H1462.23V77.15V8.3V7.55H1461.48H1214.43H1213.68V8.3V323.3V324.05H1214.43H1467.33H1468.08V323.3V254.45ZM1875.15 322.876L1807.69 224.592C1827.22 214.971 1842.22 201.809 1852.66 185.101C1863.55 167.866 1868.98 147.773 1868.98 124.85C1868.98 101.025 1863.25 80.3284 1851.76 62.7901C1840.27 44.9582 1823.95 31.3681 1802.83 22.0151C1781.72 12.363 1756.86 7.55 1728.28 7.55H1584.28H1583.53V8.3V323.3V324.05H1584.28H1673.38H1674.13V323.3V240.35H1721.58L1778.51 323.723L1778.73 324.05H1779.13H1874.53H1875.95L1875.15 322.876ZM1763.78 91.2156C1772.89 99.1457 1777.48 110.321 1777.48 124.85C1777.48 139.376 1772.89 150.55 1763.79 158.48C1754.68 166.118 1741.08 170 1722.88 170H1674.13V79.25H1722.88C1741.08 79.25 1754.67 83.2805 1763.78 91.2156Z" stroke="#707070" stroke-opacity="0.2" stroke-width="1.5"/>
</svg>
