<svg width="27" height="66" viewBox="0 0 27 66" fill="none" xmlns="http://www.w3.org/2000/svg">
<path d="M23.2397 56.5582C23.5496 56.1912 23.7126 55.7615 23.6985 55.2599C23.6456 53.1721 22.9255 52.9029 22.6718 52.8155C20.5374 54.6905 14.5694 54.6184 13.2047 54.6184C11.8887 54.6184 6.48522 54.5043 4.18673 52.8154C3.8229 53.1002 3.33816 53.7581 3.29929 55.2568C3.28742 55.7584 3.44828 56.186 3.75597 56.554C1.4348 57.1646 0 57.9932 0 58.9039V63.2274C0 63.2274 2.66232 66.1663 14.2854 65.9926C25.9085 65.8199 27 62.4513 27 62.4513V58.6737H26.9536C26.7355 57.8554 25.3568 57.1184 23.2397 56.5582Z" fill="#BE4A4E" fill-opacity="0.8"/>
<path d="M22.1752 51.6146C21.2381 50.2988 16.1941 49.8636 16.1941 49.8636C16.1941 49.8636 15.6678 49.2523 15.6678 46.7152C15.6678 44.4345 16.7294 40.1464 16.8191 38.4925C16.9165 36.3854 16.6343 35.6056 16.6343 34.1149C16.6343 32.6243 17.6746 30.9614 17.858 27.4607C18.0507 23.9626 17.1739 21.4343 17.1739 21.4343C17.9409 21.3373 18.874 20.8179 19.1632 20.2015C19.5366 19.3311 20.7642 14.6001 20.7642 12.6807C20.7642 11.892 20.6721 11.1951 20.4858 10.6693C19.621 8.73071 17.1097 9.06763 15.9785 7.82713C15.6238 7.44043 15.4015 7.46216 15.3761 6.06596C15.9651 5.29639 16.1458 4.13883 16.1458 2.46952C16.1458 1.07715 15.0066 0 13.4966 0C11.9812 0 10.846 1.07715 10.846 2.46952C10.846 4.13883 11.0253 5.29639 11.6157 6.06596C11.5879 7.46216 11.3654 7.44043 11.0093 7.82713C9.88084 9.06763 7.37218 8.73071 6.49936 10.6693C6.31731 11.1951 6.22889 11.892 6.22889 12.6807C6.22889 14.6001 7.45373 19.3311 7.82588 20.2015C8.11504 20.8179 9.05209 21.3373 9.81245 21.4343C9.81245 21.4343 8.9384 23.9626 9.12978 27.4607C9.31591 30.9614 10.356 32.6243 10.356 34.1149C10.356 35.6056 10.0709 36.3854 10.17 38.4925C10.261 40.1464 11.3225 44.4345 11.3225 46.7152C11.3225 49.2523 10.7961 49.8636 10.7961 49.8636C9.19235 50.0385 5.751 50.2988 4.81661 51.6146C4.81661 51.6146 3.78002 53.9668 13.4951 53.9668C23.2102 53.9668 22.1752 51.6146 22.1752 51.6146Z" fill="#BE4A4E" fill-opacity="0.8"/>
</svg>
