<svg width="20" height="21" viewBox="0 0 20 21" fill="none" xmlns="http://www.w3.org/2000/svg">
<g clip-path="url(#clip0)">
<path d="M20 4.29875C19.2563 4.625 18.4637 4.84125 17.6375 4.94625C18.4875 4.43875 19.1363 3.64125 19.4412 2.68C18.6488 3.1525 17.7738 3.48625 16.8412 3.6725C16.0887 2.87125 15.0162 2.375 13.8462 2.375C11.5763 2.375 9.74875 4.2175 9.74875 6.47625C9.74875 6.80125 9.77625 7.11375 9.84375 7.41125C6.435 7.245 3.41875 5.61125 1.3925 3.1225C1.03875 3.73625 0.83125 4.43875 0.83125 5.195C0.83125 6.615 1.5625 7.87375 2.6525 8.6025C1.99375 8.59 1.3475 8.39875 0.8 8.0975C0.8 8.11 0.8 8.12625 0.8 8.1425C0.8 10.135 2.22125 11.79 4.085 12.1712C3.75125 12.2625 3.3875 12.3062 3.01 12.3062C2.7475 12.3062 2.4825 12.2913 2.23375 12.2362C2.765 13.86 4.2725 15.0538 6.065 15.0925C4.67 16.1838 2.89875 16.8412 0.98125 16.8412C0.645 16.8412 0.3225 16.8263 0 16.785C1.81625 17.9563 3.96875 18.625 6.29 18.625C13.835 18.625 17.96 12.375 17.96 6.9575C17.96 6.77625 17.9538 6.60125 17.945 6.4275C18.7588 5.85 19.4425 5.12875 20 4.29875Z" fill="#707070"/>
</g>
<defs>
<clipPath id="clip0">
<rect width="20" height="20" fill="white" transform="translate(0 0.5)"/>
</clipPath>
</defs>
</svg>
